<?xml version="1.0" encoding="utf-8"?>
<!-- Generator: Adobe Illustrator 16.0.0, SVG Export Plug-In . SVG Version: 6.00 Build 0)  -->
<!DOCTYPE svg PUBLIC "-//W3C//DTD SVG 1.1//EN" "http://www.w3.org/Graphics/SVG/1.1/DTD/svg11.dtd">
<svg version="1.1" id="Layer_1" xmlns="http://www.w3.org/2000/svg" xmlns:xlink="http://www.w3.org/1999/xlink" x="0px" y="0px"
	 width="585px" height="300px" viewBox="0 0 585 300" enable-background="new 0 0 585 300" xml:space="preserve">
<circle fill="#6BAFAF" cx="145.143" cy="150.417" r="126.16"/>
<g>
	<path fill="#4C5255" d="M203.476,70.676H86.012c-2.346,0-4.247,1.901-4.247,4.245v160.745c0,2.345,1.901,4.246,4.247,4.246h117.464
		c2.345,0,4.247-1.901,4.247-4.246V74.921C207.722,72.577,205.821,70.676,203.476,70.676z"/>
	<rect x="90.277" y="78.047" fill="#FFFFFF" width="108.933" height="153.436"/>
</g>
<path fill="#C7C6C6" d="M120.25,215.058H98.745c-0.548,0-0.997,0.448-0.997,0.995v0.247c0,0.549,0.449,0.997,0.997,0.997h21.504
	c0.548,0,0.996-0.448,0.996-0.997v-0.247C121.246,215.506,120.797,215.058,120.25,215.058z"/>
<path fill="#C7C6C6" d="M190.127,215.058h-21.503c-0.548,0-0.997,0.448-0.997,0.995v0.247c0,0.549,0.449,0.997,0.997,0.997h21.503
	c0.549,0,0.997-0.448,0.997-0.997v-0.247C191.124,215.506,190.676,215.058,190.127,215.058z"/>
<path fill="#6EB2C2" d="M143.893,112.659H98.745c-0.548,0-0.997,0.449-0.997,0.997v0.247c0,0.547,0.449,0.996,0.997,0.996h45.147
	c0.548,0,0.997-0.449,0.997-0.996v-0.247C144.889,113.107,144.44,112.659,143.893,112.659z"/>
<path fill="#C7C6C6" d="M191.033,118.034H98.745c-0.548,0-0.997,0.449-0.997,0.997v0.246c0,0.549,0.449,0.998,0.997,0.998h92.288
	c0.548,0,0.997-0.449,0.997-0.998v-0.246C192.03,118.483,191.582,118.034,191.033,118.034z"/>
<path fill="#C7C6C6" d="M191.033,123.41H98.745c-0.548,0-0.997,0.449-0.997,0.997v0.247c0,0.548,0.449,0.997,0.997,0.997h92.288
	c0.548,0,0.997-0.449,0.997-0.997v-0.247C192.03,123.858,191.582,123.41,191.033,123.41z"/>
<path fill="#C7C6C6" d="M191.033,128.785H98.745c-0.548,0-0.997,0.449-0.997,0.997v0.246c0,0.549,0.449,0.997,0.997,0.997h92.288
	c0.548,0,0.997-0.448,0.997-0.997v-0.246C192.03,129.233,191.582,128.785,191.033,128.785z"/>
<path fill="#C7C6C6" d="M191.033,134.16H98.745c-0.548,0-0.997,0.449-0.997,0.996v0.247c0,0.548,0.449,0.997,0.997,0.997h92.288
	c0.548,0,0.997-0.449,0.997-0.997v-0.247C192.03,134.609,191.582,134.16,191.033,134.16z"/>
<path fill="#C7C6C6" d="M191.033,171.786H98.745c-0.548,0-0.997,0.448-0.997,0.998v0.244c0,0.55,0.449,0.997,0.997,0.997h92.288
	c0.548,0,0.997-0.447,0.997-0.997v-0.244C192.03,172.234,191.582,171.786,191.033,171.786z"/>
<path fill="#6EB2C2" d="M143.747,177.162H98.745c-0.548,0-0.997,0.448-0.997,0.995v0.247c0,0.549,0.449,0.997,0.997,0.997h45.001
	c0.548,0,0.997-0.448,0.997-0.997v-0.247C144.743,177.61,144.295,177.162,143.747,177.162z"/>
<path fill="#C7C6C6" d="M191.033,182.536H98.745c-0.548,0-0.997,0.449-0.997,0.997v0.246c0,0.548,0.449,0.997,0.997,0.997h92.288
	c0.548,0,0.997-0.449,0.997-0.997v-0.246C192.03,182.985,191.582,182.536,191.033,182.536z"/>
<path fill="#C7C6C6" d="M191.033,187.911H98.745c-0.548,0-0.997,0.45-0.997,0.998v0.246c0,0.548,0.449,0.997,0.997,0.997h92.288
	c0.548,0,0.997-0.449,0.997-0.997v-0.246C192.03,188.361,191.582,187.911,191.033,187.911z"/>
<path fill="#C7C6C6" d="M191.033,193.287H98.745c-0.548,0-0.997,0.449-0.997,0.997v0.247c0,0.547,0.449,0.997,0.997,0.997h92.288
	c0.548,0,0.997-0.45,0.997-0.997v-0.247C192.03,193.736,191.582,193.287,191.033,193.287z"/>
<path fill="#C7C6C6" d="M191.033,198.663H98.745c-0.548,0-0.997,0.447-0.997,0.997v0.244c0,0.55,0.449,0.997,0.997,0.997h92.288
	c0.548,0,0.997-0.447,0.997-0.997v-0.244C192.03,199.11,191.582,198.663,191.033,198.663z"/>
<path fill="#C7C6C6" d="M191.033,204.038H98.745c-0.548,0-0.997,0.448-0.997,0.995v0.247c0,0.549,0.449,0.997,0.997,0.997h92.288
	c0.548,0,0.997-0.448,0.997-0.997v-0.247C192.03,204.486,191.582,204.038,191.033,204.038z"/>
<g opacity="0.44">
	<circle fill="#DBDBDB" cx="167.24" cy="217.788" r="8.464"/>
	<g>
		<path fill="#919191" d="M167.24,226.503c-4.806,0-8.715-3.91-8.715-8.715c0-4.807,3.91-8.717,8.715-8.717s8.715,3.91,8.715,8.717
			C175.956,222.593,172.046,226.503,167.24,226.503z M167.24,209.575c-4.529,0-8.212,3.685-8.212,8.213
			c0,4.527,3.684,8.213,8.212,8.213c4.528,0,8.212-3.686,8.212-8.213C175.453,213.26,171.769,209.575,167.24,209.575z"/>
	</g>
	<g>
		<path fill="#909393" d="M167.911,211.093c-0.038,0.017-0.11,0.031-0.203,0.025c-0.214-0.009-0.369-0.152-0.357-0.402
			c0.011-0.237,0.18-0.39,0.415-0.379c0.095,0.004,0.154,0.027,0.179,0.042l-0.027,0.079c-0.037-0.021-0.089-0.036-0.152-0.04
			c-0.178-0.009-0.302,0.1-0.311,0.3c-0.009,0.187,0.093,0.31,0.278,0.318c0.059,0.004,0.121-0.005,0.161-0.023L167.911,211.093z"/>
		<path fill="#909393" d="M168.524,210.921c-0.027,0.199-0.178,0.267-0.309,0.248c-0.146-0.019-0.245-0.142-0.221-0.313
			c0.025-0.18,0.158-0.271,0.308-0.25C168.457,210.627,168.547,210.754,168.524,210.921z M168.094,210.866
			c-0.017,0.118,0.04,0.218,0.135,0.23c0.094,0.013,0.177-0.065,0.193-0.188c0.013-0.092-0.017-0.214-0.133-0.229
			C168.173,210.663,168.108,210.763,168.094,210.866z"/>
		<path fill="#909393" d="M168.683,210.828c0.012-0.055,0.022-0.1,0.029-0.146l0.085,0.021l-0.014,0.089h0.001
			c0.038-0.044,0.111-0.08,0.199-0.06c0.073,0.018,0.177,0.089,0.135,0.271l-0.073,0.317l-0.097-0.023l0.071-0.307
			c0.02-0.085,0.004-0.163-0.086-0.185c-0.063-0.015-0.124,0.018-0.153,0.068c-0.007,0.011-0.013,0.027-0.017,0.044l-0.075,0.319
			l-0.096-0.022L168.683,210.828z"/>
		<path fill="#909393" d="M169.507,210.727l-0.047,0.15l0.136,0.042l-0.022,0.072l-0.135-0.042l-0.087,0.281
			c-0.021,0.065-0.014,0.107,0.039,0.123c0.025,0.008,0.044,0.011,0.057,0.011l-0.018,0.073c-0.021,0.002-0.052-0.002-0.088-0.013
			c-0.044-0.015-0.075-0.04-0.09-0.073c-0.018-0.036-0.013-0.085,0.006-0.146l0.088-0.284l-0.081-0.025l0.022-0.073l0.081,0.025
			l0.039-0.125L169.507,210.727z"/>
		<path fill="#909393" d="M169.661,211.124c0.022-0.063,0.041-0.114,0.055-0.162l0.082,0.029l-0.035,0.102l0.005,0.002
			c0.048-0.06,0.121-0.082,0.183-0.06c0.011,0.005,0.017,0.007,0.025,0.014l-0.032,0.088c-0.009-0.006-0.018-0.012-0.031-0.017
			c-0.065-0.023-0.13,0.009-0.169,0.074c-0.006,0.013-0.014,0.025-0.02,0.042l-0.101,0.271l-0.093-0.032L169.661,211.124z"/>
		<path fill="#909393" d="M170.135,211.722l0.021-0.065l-0.003-0.001c-0.045,0.026-0.114,0.037-0.185,0.005
			c-0.102-0.045-0.121-0.14-0.088-0.21c0.054-0.122,0.19-0.14,0.382-0.053l0.005-0.009c0.018-0.042,0.04-0.122-0.062-0.167
			c-0.047-0.021-0.101-0.027-0.146-0.021l0.006-0.068c0.053-0.009,0.12,0,0.183,0.027c0.153,0.068,0.143,0.19,0.098,0.29
			l-0.083,0.185c-0.02,0.044-0.036,0.087-0.045,0.125L170.135,211.722z M170.235,211.461c-0.098-0.046-0.218-0.078-0.262,0.018
			c-0.026,0.061,0.001,0.105,0.048,0.126c0.064,0.028,0.124,0.005,0.157-0.029c0.007-0.009,0.014-0.019,0.018-0.027L170.235,211.461
			z"/>
		<path fill="#909393" d="M170.565,211.607h0.001c0.021-0.011,0.049-0.021,0.073-0.03l0.23-0.089l0.105,0.056l-0.293,0.097
			l0.058,0.396l-0.106-0.056l-0.04-0.321l-0.072,0.025l-0.098,0.182l-0.086-0.048l0.382-0.703l0.086,0.046L170.565,211.607z"/>
		<path fill="#909393" d="M171.265,211.544l-0.084,0.133l0.12,0.076l-0.041,0.063l-0.12-0.076l-0.158,0.248
			c-0.036,0.059-0.041,0.1,0.006,0.129c0.022,0.015,0.04,0.021,0.053,0.025l-0.036,0.065c-0.021-0.004-0.049-0.015-0.082-0.035
			c-0.039-0.025-0.063-0.058-0.068-0.092c-0.008-0.04,0.009-0.087,0.044-0.142l0.159-0.252l-0.071-0.044l0.04-0.064l0.071,0.045
			l0.07-0.108L171.265,211.544z"/>
		<path fill="#909393" d="M171.714,212.716c-0.039-0.01-0.107-0.04-0.18-0.099c-0.167-0.132-0.209-0.339-0.053-0.534
			c0.148-0.186,0.375-0.213,0.56-0.063c0.074,0.058,0.108,0.112,0.12,0.138l-0.068,0.049c-0.018-0.038-0.051-0.082-0.1-0.121
			c-0.14-0.111-0.304-0.097-0.428,0.06c-0.116,0.146-0.107,0.307,0.038,0.422c0.047,0.038,0.103,0.065,0.145,0.074L171.714,212.716z
			"/>
		<path fill="#909393" d="M172.313,212.937c-0.14,0.146-0.302,0.114-0.397,0.021c-0.107-0.102-0.114-0.259,0.005-0.382
			c0.126-0.133,0.287-0.127,0.396-0.024C172.431,212.661,172.429,212.817,172.313,212.937z M171.997,212.641
			c-0.083,0.088-0.096,0.2-0.026,0.267c0.068,0.065,0.181,0.051,0.267-0.038c0.064-0.066,0.112-0.183,0.027-0.265
			C172.18,212.523,172.068,212.566,171.997,212.641z"/>
		<path fill="#909393" d="M172.496,212.957c0.043-0.038,0.077-0.067,0.109-0.102l0.058,0.066l-0.065,0.063l0.001,0.002
			c0.057-0.013,0.137,0,0.196,0.069c0.05,0.056,0.094,0.176-0.048,0.299l-0.246,0.214l-0.065-0.076l0.238-0.207
			c0.066-0.058,0.1-0.13,0.038-0.201c-0.043-0.049-0.111-0.056-0.164-0.032c-0.012,0.004-0.027,0.013-0.04,0.023l-0.248,0.218
			l-0.065-0.076L172.496,212.957z"/>
		<path fill="#909393" d="M173.221,213.355l-0.125,0.094l0.085,0.114l-0.06,0.046l-0.086-0.114l-0.235,0.178
			c-0.054,0.04-0.073,0.08-0.04,0.123c0.016,0.021,0.03,0.034,0.04,0.042l-0.057,0.049c-0.018-0.011-0.041-0.031-0.064-0.063
			c-0.028-0.036-0.038-0.074-0.031-0.11c0.006-0.04,0.039-0.076,0.09-0.116l0.238-0.178l-0.051-0.069l0.061-0.045l0.051,0.067
			l0.104-0.078L173.221,213.355z"/>
		<path fill="#909393" d="M173.114,213.766c0.054-0.037,0.099-0.067,0.139-0.099l0.048,0.071l-0.087,0.063l0.003,0.003
			c0.075-0.02,0.146,0.004,0.184,0.059c0.006,0.009,0.009,0.018,0.013,0.025l-0.078,0.053c-0.003-0.01-0.009-0.019-0.016-0.031
			c-0.039-0.057-0.111-0.069-0.181-0.038c-0.012,0.006-0.027,0.013-0.041,0.021l-0.242,0.163l-0.055-0.081L173.114,213.766z"/>
		<path fill="#909393" d="M173.148,214.528l0.056-0.042l-0.002-0.001c-0.052-0.006-0.115-0.037-0.154-0.104
			c-0.056-0.097-0.017-0.186,0.051-0.224c0.114-0.066,0.236-0.001,0.341,0.182l0.01-0.006c0.039-0.023,0.103-0.074,0.046-0.17
			c-0.025-0.045-0.066-0.083-0.106-0.104l0.045-0.053c0.048,0.025,0.098,0.073,0.132,0.131c0.083,0.145,0.005,0.237-0.089,0.292
			l-0.176,0.104c-0.041,0.023-0.08,0.049-0.109,0.072L173.148,214.528z M173.382,214.376c-0.053-0.094-0.131-0.19-0.223-0.138
			c-0.055,0.032-0.06,0.083-0.035,0.129c0.036,0.062,0.097,0.078,0.145,0.067c0.011-0.002,0.021-0.006,0.031-0.012L173.382,214.376z
			"/>
		<path fill="#909393" d="M173.566,214.689l0.001,0.004c0.023,0.004,0.053,0.011,0.077,0.017l0.239,0.063l0.052,0.106l-0.294-0.092
			l-0.186,0.354l-0.052-0.108l0.154-0.283l-0.073-0.021l-0.185,0.089l-0.043-0.089l0.723-0.346l0.042,0.089L173.566,214.689z"/>
		<path fill="#909393" d="M174.171,215.047l-0.146,0.058l0.053,0.133l-0.07,0.029l-0.053-0.133l-0.273,0.109
			c-0.063,0.025-0.091,0.058-0.071,0.108c0.01,0.023,0.02,0.04,0.028,0.051l-0.067,0.032c-0.014-0.016-0.031-0.041-0.045-0.076
			c-0.018-0.043-0.018-0.083-0.001-0.115c0.016-0.037,0.058-0.065,0.118-0.089l0.276-0.111l-0.031-0.077l0.07-0.029l0.031,0.08
			l0.121-0.05L174.171,215.047z"/>
		<path fill="#909393" d="M173.85,216.262c-0.027-0.031-0.064-0.095-0.089-0.184c-0.058-0.206,0.03-0.398,0.27-0.466
			c0.229-0.063,0.428,0.049,0.491,0.276c0.025,0.09,0.022,0.153,0.016,0.183l-0.084-0.002c0.008-0.04,0.006-0.096-0.01-0.155
			c-0.048-0.173-0.189-0.256-0.382-0.202c-0.18,0.05-0.266,0.186-0.216,0.363c0.016,0.058,0.044,0.114,0.073,0.146L173.85,216.262z"
			/>
		<path fill="#909393" d="M174.205,216.793c-0.199,0.036-0.31-0.085-0.333-0.216c-0.026-0.146,0.06-0.275,0.229-0.309
			c0.18-0.032,0.307,0.067,0.334,0.216C174.462,216.639,174.369,216.764,174.205,216.793z M174.122,216.368
			c-0.118,0.021-0.194,0.105-0.177,0.2c0.017,0.094,0.118,0.148,0.239,0.125c0.091-0.017,0.198-0.082,0.177-0.198
			C174.339,216.38,174.224,216.351,174.122,216.368z"/>
		<path fill="#909393" d="M174.341,216.912c0.056-0.005,0.102-0.011,0.147-0.018l0.008,0.087l-0.089,0.015v0.002
			c0.054,0.021,0.11,0.081,0.118,0.17c0.007,0.076-0.027,0.196-0.214,0.212l-0.324,0.031l-0.009-0.1l0.313-0.027
			c0.088-0.007,0.158-0.047,0.149-0.142c-0.006-0.063-0.057-0.11-0.113-0.123c-0.013-0.004-0.03-0.004-0.046-0.002l-0.327,0.029
			l-0.009-0.1L174.341,216.912z"/>
		<path fill="#909393" d="M174.693,217.663l-0.156,0.004l0.002,0.142l-0.076,0.001l-0.002-0.141l-0.294,0.005
			c-0.068,0-0.106,0.021-0.104,0.076c0,0.025,0.004,0.046,0.008,0.057l-0.074,0.007c-0.008-0.02-0.015-0.051-0.016-0.089
			c0-0.045,0.014-0.083,0.04-0.106c0.029-0.029,0.077-0.04,0.141-0.042l0.298-0.006l-0.002-0.083l0.076-0.002l0.001,0.084
			l0.131-0.002L174.693,217.663z"/>
		<path fill="#909393" d="M174.367,217.934c0.064,0.002,0.119,0.003,0.17,0.002l-0.003,0.087l-0.107-0.002v0.005
			c0.073,0.027,0.117,0.089,0.114,0.156c0,0.011-0.001,0.019-0.004,0.027l-0.093-0.004c0.002-0.009,0.003-0.02,0.004-0.032
			c0.002-0.071-0.049-0.122-0.124-0.138c-0.013-0.004-0.029-0.006-0.045-0.006l-0.291-0.011l0.003-0.098L174.367,217.934z"/>
		<path fill="#909393" d="M173.947,218.571l0.069-0.002l0.001-0.003c-0.04-0.035-0.072-0.097-0.064-0.173
			c0.012-0.11,0.094-0.159,0.173-0.152c0.131,0.015,0.192,0.138,0.169,0.349l0.011,0.002c0.045,0.003,0.127,0,0.138-0.112
			c0.005-0.051-0.005-0.105-0.026-0.146l0.067-0.017c0.024,0.048,0.037,0.114,0.03,0.184c-0.016,0.167-0.134,0.195-0.243,0.185
			l-0.203-0.02c-0.047-0.006-0.094-0.008-0.131-0.004L173.947,218.571z M174.226,218.584c0.013-0.106,0.006-0.231-0.099-0.241
			c-0.064-0.007-0.099,0.033-0.104,0.084c-0.007,0.07,0.034,0.119,0.078,0.14c0.009,0.003,0.021,0.007,0.031,0.009L174.226,218.584z
			"/>
		<path fill="#909393" d="M174.192,218.945L174.192,218.945c0.016,0.018,0.037,0.041,0.052,0.06l0.157,0.192l-0.021,0.116
			l-0.184-0.247l-0.359,0.18l0.021-0.118l0.291-0.14l-0.046-0.06l-0.202-0.036l0.017-0.097l0.789,0.142l-0.017,0.097
			L174.192,218.945z"/>
		<path fill="#909393" d="M174.473,219.589l-0.152-0.036l-0.034,0.138l-0.074-0.021l0.035-0.138l-0.286-0.07
			c-0.065-0.017-0.107-0.008-0.121,0.047c-0.006,0.025-0.008,0.044-0.007,0.058l-0.073-0.014c-0.003-0.021-0.001-0.051,0.008-0.089
			c0.011-0.046,0.034-0.078,0.066-0.093c0.035-0.021,0.085-0.021,0.147-0.004l0.289,0.071l0.021-0.082l0.073,0.019l-0.021,0.081
			l0.127,0.033L174.473,219.589z"/>
		<path fill="#909393" d="M173.501,220.387c-0.004-0.04,0.004-0.114,0.036-0.202c0.074-0.201,0.258-0.306,0.491-0.219
			c0.224,0.083,0.319,0.29,0.238,0.511c-0.033,0.089-0.073,0.138-0.095,0.158l-0.067-0.051c0.031-0.027,0.062-0.072,0.083-0.133
			c0.062-0.166-0.004-0.316-0.191-0.388c-0.175-0.063-0.324-0.005-0.389,0.169c-0.021,0.056-0.03,0.117-0.026,0.161L173.501,220.387
			z"/>
		<path fill="#909393" d="M173.479,221.022c-0.182-0.087-0.202-0.25-0.145-0.37c0.064-0.132,0.211-0.188,0.366-0.113
			c0.166,0.077,0.21,0.231,0.146,0.367C173.778,221.048,173.63,221.095,173.479,221.022z M173.661,220.631
			c-0.108-0.053-0.22-0.028-0.261,0.059c-0.041,0.085,0.009,0.188,0.12,0.241c0.083,0.039,0.209,0.049,0.26-0.059
			C173.83,220.767,173.754,220.675,173.661,220.631z"/>
		<path fill="#909393" d="M173.519,221.2c0.048,0.029,0.088,0.053,0.129,0.072l-0.045,0.076l-0.081-0.041l-0.001,0.002
			c0.031,0.051,0.042,0.13-0.004,0.206c-0.039,0.065-0.137,0.144-0.298,0.047l-0.28-0.164l0.05-0.088l0.271,0.162
			c0.076,0.045,0.156,0.054,0.203-0.025c0.034-0.057,0.02-0.124-0.019-0.167c-0.009-0.011-0.022-0.021-0.037-0.029l-0.282-0.169
			l0.051-0.085L173.519,221.2z"/>
		<path fill="#909393" d="M173.367,222.015l-0.128-0.091l-0.082,0.118l-0.062-0.044l0.081-0.116l-0.241-0.168
			c-0.056-0.038-0.098-0.046-0.13,0c-0.015,0.021-0.023,0.039-0.028,0.052l-0.063-0.039c0.005-0.021,0.017-0.05,0.04-0.08
			c0.026-0.038,0.06-0.06,0.095-0.063c0.04-0.008,0.086,0.013,0.139,0.049l0.245,0.171l0.048-0.069l0.062,0.042l-0.047,0.07
			l0.107,0.074L173.367,222.015z"/>
		<path fill="#909393" d="M172.943,222.042c0.051,0.039,0.095,0.072,0.137,0.102l-0.053,0.068l-0.086-0.063l-0.003,0.004
			c0.042,0.065,0.042,0.14,0.002,0.192c-0.007,0.009-0.013,0.014-0.021,0.02l-0.074-0.057c0.008-0.007,0.015-0.014,0.023-0.025
			c0.042-0.054,0.031-0.126-0.019-0.183c-0.01-0.011-0.021-0.021-0.034-0.032l-0.229-0.178l0.06-0.078L172.943,222.042z"/>
		<path fill="#909393" d="M172.228,222.313l0.057,0.04l0.002-0.002c-0.012-0.051-0.001-0.121,0.05-0.18
			c0.073-0.081,0.169-0.072,0.228-0.02c0.099,0.087,0.075,0.223-0.066,0.381l0.008,0.007c0.034,0.029,0.103,0.074,0.177-0.009
			c0.034-0.038,0.057-0.087,0.064-0.135l0.064,0.027c-0.009,0.053-0.037,0.116-0.083,0.167c-0.11,0.125-0.223,0.08-0.305,0.006
			l-0.152-0.135c-0.036-0.032-0.071-0.062-0.104-0.081L172.228,222.313z M172.446,222.489c0.074-0.081,0.141-0.185,0.062-0.256
			c-0.048-0.043-0.1-0.03-0.133,0.008c-0.047,0.053-0.043,0.116-0.02,0.159c0.005,0.009,0.012,0.019,0.02,0.025L172.446,222.489z"/>
		<path fill="#909393" d="M172.207,222.76l-0.001,0.002c0.003,0.023,0.006,0.054,0.008,0.079l0.015,0.245l-0.085,0.083l-0.004-0.308
			l-0.396-0.065l0.087-0.084l0.317,0.059l-0.002-0.076l-0.143-0.146l0.071-0.067l0.555,0.576l-0.071,0.067L172.207,222.76z"/>
		<path fill="#909393" d="M172.057,223.446l-0.101-0.119l-0.108,0.091l-0.049-0.057l0.108-0.093l-0.19-0.225
			c-0.043-0.053-0.083-0.068-0.125-0.032c-0.021,0.017-0.033,0.03-0.04,0.042l-0.051-0.055c0.009-0.019,0.029-0.042,0.059-0.067
			c0.035-0.03,0.073-0.043,0.108-0.036c0.041,0.004,0.08,0.034,0.122,0.083l0.191,0.227l0.065-0.054l0.048,0.058l-0.064,0.055
			l0.083,0.1L172.057,223.446z"/>
		<path fill="#909393" d="M170.806,223.522c0.02-0.036,0.07-0.09,0.146-0.143c0.178-0.12,0.387-0.097,0.526,0.108
			c0.133,0.197,0.089,0.423-0.106,0.553c-0.079,0.055-0.139,0.071-0.169,0.074l-0.025-0.079c0.041-0.006,0.093-0.025,0.145-0.061
			c0.148-0.1,0.183-0.259,0.071-0.426c-0.104-0.154-0.259-0.193-0.412-0.091c-0.05,0.035-0.094,0.078-0.116,0.116L170.806,223.522z"
			/>
		<path fill="#909393" d="M170.412,224.026c-0.097-0.176-0.017-0.32,0.099-0.384c0.13-0.071,0.282-0.031,0.364,0.121
			c0.088,0.16,0.035,0.311-0.098,0.385C170.64,224.223,170.493,224.174,170.412,224.026z M170.79,223.814
			c-0.058-0.104-0.161-0.152-0.246-0.104c-0.083,0.045-0.103,0.157-0.044,0.266c0.045,0.08,0.142,0.162,0.245,0.105
			C170.847,224.025,170.839,223.905,170.79,223.814z"/>
		<path fill="#909393" d="M170.339,224.195c0.023,0.053,0.042,0.095,0.063,0.135l-0.08,0.034l-0.042-0.08h-0.001
			c-0.005,0.06-0.042,0.131-0.125,0.167c-0.069,0.029-0.194,0.036-0.27-0.136l-0.13-0.3l0.091-0.04l0.125,0.291
			c0.035,0.079,0.095,0.134,0.18,0.096c0.06-0.025,0.088-0.089,0.082-0.146c-0.001-0.013-0.006-0.029-0.013-0.046l-0.131-0.299
			l0.091-0.04L170.339,224.195z"/>
		<path fill="#909393" d="M169.739,224.767l-0.052-0.146l-0.134,0.047l-0.025-0.072l0.133-0.048l-0.097-0.277
			c-0.022-0.063-0.054-0.094-0.105-0.076c-0.025,0.01-0.042,0.021-0.052,0.027l-0.03-0.068c0.016-0.015,0.043-0.029,0.079-0.042
			c0.043-0.017,0.084-0.015,0.115,0.004c0.036,0.018,0.062,0.06,0.083,0.121l0.099,0.281l0.079-0.029l0.025,0.07l-0.08,0.029
			l0.043,0.123L169.739,224.767z"/>
		<path fill="#909393" d="M169.381,224.54c0.018,0.063,0.035,0.116,0.052,0.163l-0.083,0.023l-0.033-0.102l-0.004,0.002
			c-0.003,0.078-0.048,0.138-0.112,0.158c-0.011,0.001-0.019,0.003-0.028,0.003l-0.026-0.089c0.01-0.002,0.021-0.003,0.034-0.007
			c0.066-0.021,0.1-0.084,0.091-0.16c-0.001-0.013-0.003-0.028-0.008-0.045l-0.082-0.279l0.095-0.029L169.381,224.54z"/>
		<path fill="#909393" d="M168.642,224.343l0.022,0.064h0.004c0.021-0.049,0.069-0.1,0.146-0.115
			c0.108-0.024,0.18,0.039,0.197,0.117c0.028,0.129-0.071,0.224-0.277,0.269l0.002,0.011c0.01,0.044,0.04,0.121,0.149,0.097
			c0.05-0.012,0.098-0.038,0.13-0.071l0.036,0.06c-0.038,0.038-0.097,0.071-0.165,0.087c-0.163,0.035-0.227-0.066-0.25-0.174
			l-0.044-0.199c-0.01-0.045-0.022-0.091-0.037-0.125L168.642,224.343z M168.716,224.61c0.106-0.02,0.223-0.065,0.2-0.17
			c-0.014-0.062-0.063-0.082-0.112-0.071c-0.07,0.015-0.104,0.069-0.109,0.118c-0.001,0.009-0.001,0.021,0.001,0.031L168.716,224.61
			z"/>
		<path fill="#909393" d="M168.365,224.69h-0.002c-0.011,0.021-0.027,0.047-0.04,0.069l-0.132,0.208l-0.119,0.019l0.178-0.252
			l-0.283-0.287l0.12-0.017l0.223,0.234l0.042-0.063l-0.029-0.203l0.098-0.015l0.111,0.794l-0.097,0.013L168.365,224.69z"/>
		<path fill="#909393" d="M167.841,225.158l-0.012-0.156l-0.142,0.011l-0.005-0.076l0.142-0.011l-0.021-0.293
			c-0.005-0.067-0.027-0.104-0.082-0.101c-0.026,0.002-0.045,0.008-0.057,0.012l-0.01-0.075c0.019-0.009,0.049-0.016,0.087-0.018
			c0.046-0.004,0.084,0.007,0.11,0.032c0.031,0.027,0.044,0.074,0.049,0.14l0.022,0.298l0.084-0.008l0.005,0.074l-0.084,0.008
			l0.01,0.131L167.841,225.158z"/>
		<path fill="#909393" d="M166.78,224.485c0.037-0.017,0.109-0.03,0.202-0.029c0.214,0.008,0.371,0.149,0.361,0.397
			c-0.007,0.239-0.174,0.396-0.41,0.386c-0.095-0.003-0.154-0.025-0.179-0.039l0.026-0.08c0.037,0.02,0.089,0.036,0.152,0.038
			c0.178,0.006,0.301-0.104,0.308-0.305c0.006-0.185-0.097-0.309-0.282-0.315c-0.059-0.002-0.121,0.009-0.161,0.027L166.78,224.485z
			"/>
		<path fill="#909393" d="M166.167,224.667c0.025-0.201,0.175-0.272,0.305-0.256c0.147,0.019,0.247,0.142,0.225,0.312
			c-0.023,0.182-0.154,0.272-0.304,0.254C166.237,224.959,166.146,224.832,166.167,224.667z M166.597,224.714
			c0.015-0.118-0.042-0.216-0.139-0.229c-0.094-0.011-0.175,0.067-0.19,0.188c-0.012,0.093,0.02,0.216,0.136,0.23
			C166.521,224.917,166.584,224.817,166.597,224.714z"/>
		<path fill="#909393" d="M166.01,224.76c-0.012,0.056-0.021,0.101-0.026,0.145l-0.086-0.019l0.014-0.088l-0.002-0.002
			c-0.037,0.045-0.109,0.081-0.198,0.062c-0.074-0.015-0.179-0.084-0.139-0.269l0.07-0.317l0.097,0.021l-0.067,0.307
			c-0.019,0.087-0.002,0.165,0.089,0.186c0.063,0.013,0.123-0.021,0.151-0.071c0.007-0.011,0.013-0.027,0.016-0.043l0.07-0.321
			l0.097,0.021L166.01,224.76z"/>
		<path fill="#909393" d="M165.19,224.872l0.044-0.15l-0.136-0.04l0.021-0.073l0.136,0.04l0.084-0.282
			c0.019-0.063,0.011-0.107-0.042-0.122c-0.024-0.007-0.044-0.011-0.057-0.011l0.017-0.072c0.021-0.002,0.051,0.002,0.088,0.013
			c0.044,0.013,0.076,0.038,0.09,0.07c0.019,0.036,0.015,0.086-0.003,0.147l-0.085,0.284l0.082,0.023l-0.021,0.074l-0.082-0.025
			l-0.037,0.125L165.19,224.872z"/>
		<path fill="#909393" d="M165.03,224.479c-0.022,0.06-0.04,0.112-0.053,0.161l-0.082-0.027l0.033-0.104l-0.004-0.002
			c-0.048,0.063-0.12,0.086-0.183,0.063c-0.01-0.004-0.017-0.008-0.025-0.013l0.032-0.088c0.009,0.006,0.018,0.01,0.031,0.015
			c0.066,0.023,0.131-0.011,0.168-0.076c0.007-0.011,0.015-0.025,0.02-0.041l0.097-0.274l0.093,0.033L165.03,224.479z"/>
		<path fill="#909393" d="M164.548,223.886l-0.021,0.064l0.003,0.002c0.044-0.026,0.114-0.039,0.186-0.009
			c0.102,0.046,0.123,0.138,0.091,0.21c-0.052,0.122-0.188,0.142-0.382,0.057l-0.004,0.011c-0.018,0.042-0.039,0.122,0.063,0.165
			c0.047,0.02,0.102,0.027,0.147,0.02l-0.006,0.069c-0.053,0.009-0.121,0-0.184-0.027c-0.153-0.065-0.145-0.187-0.102-0.286
			l0.081-0.188c0.019-0.044,0.035-0.087,0.044-0.123L164.548,223.886z M164.451,224.146c0.099,0.045,0.219,0.076,0.261-0.021
			c0.025-0.061-0.002-0.104-0.049-0.124c-0.065-0.028-0.125-0.005-0.157,0.031c-0.007,0.009-0.014,0.019-0.018,0.027
			L164.451,224.146z"/>
		<path fill="#909393" d="M164.119,224.005h-0.002c-0.021,0.009-0.048,0.021-0.072,0.031l-0.229,0.092l-0.105-0.056l0.291-0.1
			l-0.063-0.397l0.107,0.057l0.044,0.32l0.072-0.026l0.096-0.182l0.086,0.045l-0.374,0.709l-0.086-0.047L164.119,224.005z"/>
		<path fill="#909393" d="M163.42,224.077l0.082-0.134l-0.121-0.074l0.04-0.063l0.121,0.074l0.154-0.25
			c0.035-0.059,0.039-0.102-0.008-0.131c-0.022-0.013-0.04-0.02-0.052-0.023l0.035-0.067c0.02,0.004,0.049,0.015,0.082,0.037
			c0.04,0.023,0.063,0.056,0.07,0.09c0.008,0.04-0.009,0.087-0.042,0.142l-0.156,0.254l0.072,0.045l-0.04,0.063l-0.072-0.045
			l-0.068,0.112L163.42,224.077z"/>
		<path fill="#909393" d="M162.955,222.912c0.04,0.007,0.108,0.038,0.181,0.094c0.169,0.133,0.214,0.338,0.061,0.535
			c-0.146,0.188-0.373,0.216-0.559,0.07c-0.075-0.058-0.109-0.11-0.122-0.138l0.068-0.047c0.018,0.036,0.052,0.08,0.102,0.119
			c0.14,0.109,0.303,0.091,0.426-0.066c0.115-0.147,0.104-0.307-0.043-0.421c-0.047-0.036-0.103-0.063-0.146-0.072L162.955,222.912z
			"/>
		<path fill="#909393" d="M162.353,222.698c0.138-0.149,0.3-0.118,0.397-0.027c0.108,0.102,0.117,0.257,0,0.384
			c-0.125,0.133-0.285,0.129-0.396,0.027C162.238,222.976,162.239,222.819,162.353,222.698z M162.673,222.988
			c0.082-0.087,0.093-0.2,0.022-0.267c-0.069-0.065-0.182-0.047-0.266,0.041c-0.063,0.069-0.11,0.186-0.023,0.267
			C162.491,223.109,162.603,223.064,162.673,222.988z"/>
		<path fill="#909393" d="M162.17,222.68c-0.042,0.038-0.076,0.069-0.107,0.102l-0.059-0.065l0.063-0.063l-0.001-0.002
			c-0.057,0.015-0.137,0-0.196-0.066c-0.051-0.057-0.095-0.175,0.044-0.3l0.243-0.216l0.066,0.073l-0.235,0.21
			c-0.065,0.06-0.099,0.133-0.036,0.203c0.043,0.047,0.111,0.055,0.164,0.031c0.012-0.006,0.026-0.015,0.039-0.025l0.245-0.22
			l0.066,0.074L162.17,222.68z"/>
		<path fill="#909393" d="M161.44,222.29l0.124-0.096l-0.087-0.113l0.06-0.047l0.087,0.114l0.233-0.182
			c0.053-0.039,0.071-0.079,0.038-0.123c-0.016-0.02-0.03-0.032-0.041-0.041l0.057-0.05c0.018,0.012,0.041,0.031,0.064,0.063
			c0.029,0.036,0.04,0.074,0.033,0.11c-0.006,0.04-0.038,0.078-0.089,0.117l-0.235,0.182l0.051,0.067l-0.06,0.045l-0.051-0.066
			l-0.104,0.081L161.44,222.29z"/>
		<path fill="#909393" d="M161.542,221.878c-0.053,0.038-0.098,0.069-0.138,0.102l-0.049-0.07l0.086-0.063l-0.003-0.005
			c-0.074,0.021-0.146,0-0.184-0.057c-0.007-0.009-0.01-0.017-0.014-0.023l0.077-0.055c0.004,0.009,0.009,0.019,0.017,0.029
			c0.04,0.058,0.112,0.068,0.181,0.038c0.013-0.006,0.027-0.013,0.041-0.021l0.24-0.167l0.056,0.081L161.542,221.878z"/>
		<path fill="#909393" d="M161.498,221.117l-0.055,0.041l0.001,0.004c0.053,0.004,0.116,0.034,0.155,0.102
			c0.057,0.095,0.019,0.184-0.048,0.223c-0.113,0.067-0.235,0.004-0.343-0.177l-0.01,0.005c-0.039,0.023-0.102,0.076-0.045,0.172
			c0.026,0.044,0.067,0.082,0.108,0.102l-0.044,0.053c-0.048-0.023-0.098-0.068-0.134-0.129c-0.085-0.143-0.009-0.237,0.085-0.293
			l0.175-0.104c0.041-0.025,0.079-0.051,0.108-0.076L161.498,221.117z M161.266,221.272c0.054,0.093,0.134,0.188,0.225,0.135
			c0.055-0.033,0.059-0.085,0.033-0.129c-0.037-0.062-0.098-0.076-0.146-0.065c-0.011,0.002-0.021,0.006-0.03,0.011L161.266,221.272
			z"/>
		<path fill="#909393" d="M161.077,220.961l0-0.002c-0.023-0.003-0.053-0.011-0.077-0.016l-0.24-0.063l-0.053-0.106l0.295,0.091
			l0.182-0.359l0.053,0.108l-0.151,0.285l0.073,0.021l0.185-0.092l0.043,0.089l-0.718,0.354l-0.043-0.089L161.077,220.961z"/>
		<path fill="#909393" d="M160.469,220.613l0.145-0.061l-0.054-0.132l0.07-0.029l0.054,0.131l0.272-0.112
			c0.063-0.025,0.09-0.059,0.069-0.109c-0.009-0.025-0.02-0.04-0.028-0.051l0.067-0.032c0.015,0.015,0.032,0.04,0.047,0.076
			c0.018,0.042,0.019,0.081,0.002,0.114c-0.016,0.038-0.057,0.065-0.116,0.091l-0.275,0.114l0.032,0.077l-0.07,0.029l-0.033-0.078
			l-0.121,0.051L160.469,220.613z"/>
		<path fill="#909393" d="M160.775,219.395c0.028,0.029,0.065,0.095,0.091,0.184c0.06,0.204-0.025,0.398-0.264,0.468
			c-0.229,0.068-0.429-0.042-0.495-0.269c-0.026-0.091-0.024-0.154-0.019-0.184h0.083c-0.007,0.042-0.005,0.097,0.013,0.158
			c0.05,0.17,0.193,0.252,0.384,0.195c0.179-0.053,0.264-0.188,0.212-0.366c-0.017-0.058-0.046-0.112-0.076-0.145L160.775,219.395z"
			/>
		<path fill="#909393" d="M160.413,218.869c0.198-0.04,0.312,0.081,0.337,0.212c0.028,0.144-0.056,0.277-0.225,0.31
			c-0.18,0.035-0.308-0.062-0.337-0.21C160.158,219.026,160.25,218.901,160.413,218.869z M160.502,219.293
			c0.117-0.023,0.193-0.108,0.174-0.203c-0.018-0.093-0.119-0.145-0.239-0.123c-0.091,0.018-0.197,0.087-0.175,0.201
			C160.284,219.284,160.4,219.313,160.502,219.293z"/>
		<path fill="#909393" d="M160.275,218.747c-0.057,0.006-0.103,0.011-0.147,0.021l-0.008-0.087l0.089-0.015v-0.004
			c-0.055-0.021-0.112-0.08-0.121-0.169c-0.008-0.076,0.025-0.195,0.211-0.216l0.324-0.032l0.01,0.098l-0.313,0.033
			c-0.088,0.009-0.157,0.049-0.148,0.141c0.006,0.065,0.058,0.113,0.115,0.124c0.013,0.002,0.03,0.003,0.046,0.002l0.327-0.035
			l0.01,0.1L160.275,218.747z"/>
		<path fill="#909393" d="M159.912,218.002l0.157-0.005l-0.005-0.142l0.076-0.002l0.005,0.142l0.294-0.009
			c0.067-0.002,0.105-0.022,0.104-0.078c-0.001-0.025-0.005-0.046-0.009-0.057l0.074-0.007c0.009,0.018,0.016,0.049,0.017,0.087
			c0.001,0.047-0.012,0.083-0.039,0.108c-0.029,0.029-0.077,0.04-0.141,0.042l-0.298,0.009l0.003,0.085l-0.075,0.002l-0.003-0.083
			l-0.13,0.004L159.912,218.002z"/>
		<path fill="#909393" d="M160.236,217.729c-0.064-0.002-0.12-0.002-0.171,0l0.002-0.087h0.107v-0.004
			c-0.073-0.027-0.118-0.089-0.116-0.154c0-0.013,0.001-0.02,0.004-0.028l0.093,0.001c-0.002,0.012-0.004,0.021-0.004,0.035
			c-0.001,0.068,0.05,0.119,0.125,0.136c0.013,0.002,0.029,0.005,0.046,0.005l0.29,0.006l-0.002,0.098L160.236,217.729z"/>
		<path fill="#909393" d="M160.647,217.087l-0.069,0.002l0,0.003c0.04,0.035,0.073,0.097,0.066,0.174
			c-0.009,0.109-0.092,0.16-0.17,0.152c-0.131-0.011-0.193-0.134-0.174-0.344h-0.011c-0.045-0.006-0.127,0-0.136,0.112
			c-0.005,0.049,0.006,0.104,0.028,0.143l-0.067,0.019c-0.025-0.047-0.039-0.114-0.033-0.183c0.015-0.167,0.131-0.196,0.24-0.188
			l0.203,0.017c0.047,0.006,0.093,0.007,0.131,0.004L160.647,217.087z M160.369,217.077c-0.012,0.107-0.003,0.232,0.102,0.241
			c0.064,0.006,0.099-0.034,0.103-0.085c0.006-0.07-0.035-0.119-0.08-0.14c-0.009-0.004-0.021-0.007-0.031-0.009L160.369,217.077z"
			/>
		<path fill="#909393" d="M160.397,216.715l0-0.002c-0.017-0.016-0.037-0.04-0.053-0.058l-0.16-0.188l0.02-0.118l0.187,0.245
			l0.356-0.186l-0.02,0.12l-0.289,0.144l0.047,0.058l0.202,0.034l-0.016,0.098l-0.791-0.132l0.017-0.096L160.397,216.715z"/>
		<path fill="#909393" d="M160.108,216.073l0.153,0.036l0.032-0.138l0.074,0.017l-0.032,0.138l0.287,0.068
			c0.066,0.015,0.107,0.006,0.12-0.049c0.006-0.025,0.007-0.045,0.007-0.058l0.073,0.013c0.003,0.021,0.002,0.053-0.007,0.089
			c-0.011,0.045-0.034,0.078-0.065,0.096c-0.035,0.021-0.085,0.019-0.148,0.004l-0.29-0.067l-0.02,0.082l-0.073-0.017l0.02-0.083
			l-0.128-0.029L160.108,216.073z"/>
		<path fill="#909393" d="M161.069,215.267c0.005,0.04-0.002,0.114-0.033,0.201c-0.072,0.201-0.253,0.308-0.488,0.225
			c-0.225-0.08-0.322-0.284-0.244-0.508c0.032-0.089,0.071-0.138,0.093-0.157l0.067,0.049c-0.029,0.028-0.06,0.074-0.081,0.134
			c-0.06,0.167,0.008,0.317,0.196,0.385c0.175,0.062,0.324,0,0.386-0.173c0.02-0.058,0.028-0.119,0.023-0.163L161.069,215.267z"/>
		<path fill="#909393" d="M161.084,214.628c0.183,0.084,0.205,0.249,0.149,0.368c-0.062,0.134-0.208,0.192-0.364,0.12
			c-0.167-0.076-0.213-0.229-0.15-0.366C160.784,214.606,160.932,214.558,161.084,214.628z M160.908,215.023
			c0.108,0.051,0.219,0.025,0.26-0.062c0.04-0.087-0.012-0.188-0.124-0.239c-0.083-0.04-0.209-0.048-0.259,0.06
			C160.736,214.89,160.813,214.979,160.908,215.023z"/>
		<path fill="#909393" d="M161.042,214.45c-0.049-0.028-0.089-0.051-0.13-0.07l0.044-0.076l0.081,0.04l0.001-0.002
			c-0.031-0.049-0.044-0.129,0.001-0.207c0.038-0.066,0.136-0.145,0.297-0.051l0.282,0.161l-0.049,0.088l-0.272-0.158
			c-0.077-0.043-0.156-0.053-0.203,0.029c-0.032,0.056-0.018,0.123,0.021,0.167c0.009,0.009,0.022,0.02,0.037,0.028l0.284,0.163
			l-0.049,0.086L161.042,214.45z"/>
		<path fill="#909393" d="M161.185,213.635l0.13,0.087l0.079-0.116l0.063,0.042l-0.08,0.118l0.244,0.164
			c0.056,0.038,0.099,0.044,0.129-0.001c0.014-0.022,0.022-0.04,0.026-0.053l0.064,0.038c-0.004,0.02-0.017,0.049-0.038,0.079
			c-0.026,0.04-0.059,0.063-0.095,0.065c-0.04,0.008-0.086-0.011-0.139-0.047l-0.247-0.167l-0.047,0.071l-0.063-0.044l0.047-0.068
			l-0.108-0.075L161.185,213.635z"/>
		<path fill="#909393" d="M161.607,213.601c-0.051-0.038-0.096-0.071-0.139-0.099l0.053-0.07l0.088,0.063l0.003-0.004
			c-0.044-0.065-0.044-0.14-0.004-0.193c0.007-0.01,0.012-0.015,0.02-0.021l0.075,0.057c-0.007,0.007-0.015,0.015-0.023,0.025
			c-0.042,0.056-0.03,0.127,0.021,0.183c0.009,0.009,0.02,0.021,0.034,0.031l0.232,0.176l-0.059,0.08L161.607,213.601z"/>
		<path fill="#909393" d="M162.317,213.323l-0.057-0.04l-0.002,0.003c0.013,0.051,0.003,0.12-0.048,0.18
			c-0.073,0.084-0.168,0.074-0.228,0.021c-0.1-0.085-0.078-0.221,0.061-0.38l-0.008-0.008c-0.034-0.029-0.104-0.072-0.177,0.011
			c-0.033,0.038-0.056,0.089-0.062,0.135l-0.064-0.025c0.008-0.053,0.036-0.116,0.081-0.167c0.109-0.127,0.222-0.083,0.305-0.011
			l0.154,0.134c0.036,0.031,0.072,0.06,0.104,0.078L162.317,213.323z M162.098,213.15c-0.073,0.082-0.139,0.187-0.059,0.256
			c0.048,0.042,0.1,0.029,0.133-0.009c0.046-0.053,0.042-0.118,0.018-0.16c-0.006-0.009-0.013-0.018-0.021-0.025L162.098,213.15z"/>
		<path fill="#909393" d="M162.332,212.875l0.002-0.002c-0.004-0.021-0.007-0.053-0.009-0.078l-0.018-0.246l0.084-0.084l0.008,0.309
			l0.397,0.058l-0.086,0.086l-0.318-0.053l0.003,0.076l0.145,0.145l-0.07,0.069l-0.563-0.569l0.07-0.069L162.332,212.875z"/>
		<path fill="#909393" d="M162.475,212.186l0.103,0.118l0.107-0.093l0.049,0.059l-0.107,0.093l0.193,0.223
			c0.044,0.051,0.084,0.067,0.125,0.03c0.02-0.018,0.032-0.032,0.04-0.043l0.052,0.055c-0.01,0.018-0.029,0.041-0.058,0.066
			c-0.035,0.031-0.073,0.044-0.109,0.038c-0.04-0.003-0.079-0.032-0.122-0.081l-0.195-0.225l-0.064,0.054l-0.05-0.056l0.064-0.055
			l-0.085-0.1L162.475,212.186z"/>
		<path fill="#909393" d="M163.726,212.094c-0.02,0.036-0.068,0.092-0.145,0.143c-0.176,0.124-0.386,0.104-0.528-0.101
			c-0.134-0.196-0.094-0.421,0.1-0.556c0.078-0.054,0.139-0.07,0.168-0.074l0.026,0.08c-0.042,0.006-0.092,0.025-0.144,0.06
			c-0.147,0.102-0.18,0.263-0.066,0.428c0.106,0.152,0.263,0.19,0.415,0.086c0.049-0.035,0.092-0.08,0.114-0.118L163.726,212.094z"
			/>
		<path fill="#909393" d="M164.112,211.584c0.1,0.176,0.021,0.321-0.094,0.387c-0.129,0.072-0.282,0.034-0.366-0.116
			c-0.09-0.16-0.039-0.313,0.093-0.387C163.881,211.392,164.03,211.439,164.112,211.584z M163.737,211.802
			c0.059,0.105,0.163,0.148,0.248,0.102c0.083-0.047,0.101-0.16,0.041-0.267c-0.045-0.08-0.144-0.159-0.246-0.102
			C163.677,211.593,163.686,211.711,163.737,211.802z"/>
		<path fill="#909393" d="M164.182,211.415c-0.023-0.052-0.043-0.094-0.065-0.134l0.08-0.036l0.042,0.081l0.002-0.001
			c0.004-0.059,0.041-0.131,0.123-0.167c0.069-0.031,0.194-0.038,0.271,0.132l0.134,0.298l-0.091,0.04l-0.129-0.287
			c-0.036-0.079-0.096-0.134-0.182-0.096c-0.059,0.027-0.087,0.091-0.08,0.148c0.001,0.013,0.006,0.029,0.013,0.044l0.135,0.301
			l-0.091,0.04L164.182,211.415z"/>
		<path fill="#909393" d="M164.775,210.837l0.054,0.147l0.133-0.05l0.026,0.071l-0.134,0.049l0.102,0.275
			c0.023,0.065,0.055,0.095,0.106,0.074c0.025-0.009,0.042-0.018,0.052-0.025l0.03,0.069c-0.016,0.013-0.042,0.029-0.078,0.042
			c-0.043,0.016-0.083,0.016-0.115-0.002c-0.037-0.019-0.063-0.061-0.085-0.12l-0.102-0.281l-0.08,0.031l-0.025-0.072l0.08-0.029
			l-0.045-0.123L164.775,210.837z"/>
		<path fill="#909393" d="M165.138,211.059c-0.019-0.063-0.037-0.114-0.055-0.163l0.083-0.025l0.035,0.102h0.004
			c0.002-0.078,0.046-0.14,0.109-0.16c0.011-0.003,0.019-0.005,0.028-0.005l0.028,0.09c-0.011,0-0.021,0.002-0.034,0.006
			c-0.067,0.021-0.099,0.087-0.09,0.161c0.002,0.015,0.004,0.029,0.009,0.046l0.085,0.279l-0.094,0.026L165.138,211.059z"/>
		<path fill="#909393" d="M165.876,211.247l-0.023-0.065h-0.003c-0.02,0.049-0.068,0.1-0.144,0.118
			c-0.107,0.025-0.181-0.038-0.199-0.114c-0.03-0.129,0.067-0.227,0.273-0.274l-0.003-0.011c-0.01-0.043-0.041-0.119-0.149-0.094
			c-0.049,0.013-0.098,0.04-0.129,0.072l-0.037-0.058c0.037-0.04,0.096-0.075,0.163-0.089c0.163-0.038,0.229,0.063,0.253,0.17
			l0.046,0.197c0.011,0.048,0.024,0.093,0.039,0.127L165.876,211.247z M165.798,210.979c-0.106,0.021-0.221,0.07-0.197,0.172
			c0.015,0.063,0.063,0.084,0.113,0.071c0.069-0.017,0.103-0.069,0.107-0.118c0.001-0.011,0.001-0.021-0.001-0.032L165.798,210.979z
			"/>
		<path fill="#909393" d="M166.15,210.894h0.002c0.01-0.021,0.025-0.047,0.038-0.069l0.129-0.21l0.119-0.017l-0.175,0.252
			l0.287,0.283l-0.12,0.018l-0.226-0.229l-0.042,0.062l0.031,0.203l-0.098,0.016l-0.121-0.792l0.097-0.015L166.15,210.894z"/>
		<path fill="#909393" d="M166.67,210.42l0.014,0.156l0.141-0.013l0.006,0.076l-0.141,0.013l0.025,0.292
			c0.006,0.066,0.028,0.104,0.083,0.1c0.025-0.002,0.044-0.008,0.056-0.013l0.011,0.074c-0.019,0.009-0.048,0.019-0.086,0.021
			c-0.046,0.004-0.085-0.007-0.11-0.032c-0.031-0.027-0.045-0.074-0.051-0.138l-0.025-0.298l-0.085,0.008l-0.006-0.074l0.084-0.008
			l-0.011-0.131L166.67,210.42z"/>
	</g>
</g>
<g>
	<g>
		<path fill="#CDA477" d="M225.725,209.907l-3.997,0.002l2.001,10.008l0.881,4.409c0.245,1.224,1.993,1.224,2.237,0l0.879-4.409
			l1.996-10.01H225.725z"/>
		<polygon fill="#3B4A53" points="225.715,221.501 224.043,221.514 224.882,225.871 225.784,230.215 226.617,225.853 
			227.407,221.488 		"/>
	</g>
	<g>
		<path fill="#C86C55" d="M228.47,104.848h-5.491c-0.419,0-0.759,0.34-0.759,0.758v4.194c0,0.42,0.34,0.759,0.759,0.759h5.491
			c0.419,0,0.759-0.339,0.759-0.759v-4.194C229.229,105.188,228.89,104.848,228.47,104.848z"/>
		<path fill="#C1C0BF" d="M229.009,108.32h-6.569c-0.397,0-0.719,0.322-0.719,0.719v2.951h8.007v-2.951
			C229.729,108.642,229.407,108.32,229.009,108.32z"/>
	</g>
	<g>
		<rect x="221.721" y="111.862" fill="#E7C741" width="8.007" height="98.045"/>
		<path fill="#DDBD3A" d="M227.282,123.208L227.282,123.208c0.86,0,1.558,0.698,1.558,1.558v75.523c0,0.861-0.697,1.558-1.558,1.558
			l0,0c-0.86,0-1.557-0.696-1.557-1.558v-75.523C225.725,123.907,226.422,123.208,227.282,123.208z"/>
		<path fill="#DDBD3A" d="M227.282,117.697L227.282,117.697c-0.724,0-1.311,0.587-1.311,1.312v1.137
			c0,0.723,0.587,1.312,1.311,1.312l0,0c0.724,0,1.312-0.588,1.312-1.312v-1.137C228.594,118.284,228.006,117.697,227.282,117.697z"
			/>
	</g>
</g>
<g>
	<path fill="#78B4B5" d="M124.751,92.608c-0.419,0.209-1.361,0.434-2.587,0.434c-3.484,0-5.278-2.168-5.278-5.039
		c0-3.439,2.452-5.354,5.503-5.354c1.181,0,2.079,0.239,2.482,0.449l-0.464,1.809c-0.463-0.194-1.106-0.374-1.914-0.374
		c-1.809,0-3.215,1.091-3.215,3.334c0,2.019,1.196,3.29,3.23,3.29c0.688,0,1.451-0.15,1.899-0.329L124.751,92.608z"/>
	<path fill="#78B4B5" d="M133.111,89.154c0,2.677-1.899,3.903-3.858,3.903c-2.139,0-3.783-1.406-3.783-3.769
		c0-2.362,1.555-3.873,3.903-3.873C131.616,85.416,133.111,86.956,133.111,89.154z M127.818,89.229c0,1.256,0.523,2.198,1.495,2.198
		c0.882,0,1.451-0.882,1.451-2.198c0-1.092-0.419-2.198-1.451-2.198C128.222,87.031,127.818,88.152,127.818,89.229z"/>
	<path fill="#78B4B5" d="M134.519,87.913c0-0.912-0.03-1.69-0.06-2.333h1.974l0.105,1.002h0.044
		c0.299-0.463,1.047-1.166,2.258-1.166c1.495,0,2.617,0.987,2.617,3.14v4.336h-2.273V88.84c0-0.942-0.329-1.585-1.151-1.585
		c-0.628,0-1.002,0.434-1.151,0.853c-0.06,0.135-0.09,0.359-0.09,0.568v4.217h-2.273V87.913z"/>
	<path fill="#78B4B5" d="M145.735,83.487v2.093h1.63v1.675h-1.63v2.647c0,0.882,0.209,1.286,0.897,1.286
		c0.284,0,0.508-0.03,0.673-0.06l0.015,1.72c-0.299,0.12-0.837,0.194-1.48,0.194c-0.733,0-1.346-0.254-1.705-0.628
		c-0.418-0.434-0.628-1.137-0.628-2.168v-2.991h-0.972V85.58h0.972v-1.585L145.735,83.487z"/>
	<path fill="#78B4B5" d="M148.683,87.988c0-1.077-0.03-1.779-0.06-2.408h1.958l0.075,1.346h0.06c0.374-1.062,1.271-1.51,1.974-1.51
		c0.209,0,0.314,0,0.479,0.03v2.138c-0.165-0.03-0.359-0.06-0.613-0.06c-0.837,0-1.406,0.448-1.555,1.151
		c-0.03,0.149-0.045,0.329-0.045,0.508v3.708h-2.273V87.988z"/>
	<path fill="#78B4B5" d="M158.359,92.893l-0.135-0.733h-0.045c-0.479,0.583-1.226,0.897-2.093,0.897
		c-1.48,0-2.363-1.077-2.363-2.243c0-1.899,1.705-2.811,4.292-2.796v-0.104c0-0.389-0.209-0.942-1.331-0.942
		c-0.748,0-1.541,0.254-2.019,0.554l-0.418-1.466c0.508-0.284,1.51-0.643,2.841-0.643c2.438,0,3.215,1.436,3.215,3.155v2.542
		c0,0.703,0.03,1.375,0.104,1.779H158.359z M158.09,89.438c-1.196-0.015-2.124,0.269-2.124,1.151c0,0.583,0.389,0.867,0.897,0.867
		c0.568,0,1.032-0.374,1.182-0.837c0.03-0.12,0.045-0.254,0.045-0.389V89.438z"/>
	<path fill="#78B4B5" d="M164.522,83.487v2.093h1.63v1.675h-1.63v2.647c0,0.882,0.209,1.286,0.897,1.286
		c0.284,0,0.508-0.03,0.673-0.06l0.015,1.72c-0.299,0.12-0.837,0.194-1.48,0.194c-0.733,0-1.346-0.254-1.705-0.628
		c-0.419-0.434-0.628-1.137-0.628-2.168v-2.991h-0.972V85.58h0.972v-1.585L164.522,83.487z"/>
	<path fill="#78B4B5" d="M174.617,89.154c0,2.677-1.899,3.903-3.858,3.903c-2.139,0-3.783-1.406-3.783-3.769
		c0-2.362,1.555-3.873,3.903-3.873C173.122,85.416,174.617,86.956,174.617,89.154z M169.324,89.229c0,1.256,0.523,2.198,1.495,2.198
		c0.882,0,1.451-0.882,1.451-2.198c0-1.092-0.419-2.198-1.451-2.198C169.728,87.031,169.324,88.152,169.324,89.229z"/>
</g>
<g>
	<path fill="#78B4B5" d="M103.021,97.272c0.737-0.125,1.772-0.22,3.231-0.22c1.475,0,2.525,0.282,3.231,0.847
		c0.674,0.533,1.129,1.412,1.129,2.447c0,1.036-0.345,1.914-0.973,2.51c-0.816,0.769-2.023,1.114-3.435,1.114
		c-0.314,0-0.596-0.016-0.816-0.047v3.78h-2.369V97.272z M105.39,102.072c0.204,0.047,0.455,0.063,0.8,0.063
		c1.271,0,2.055-0.644,2.055-1.726c0-0.973-0.675-1.553-1.867-1.553c-0.486,0-0.816,0.047-0.988,0.094V102.072z"/>
	<path fill="#78B4B5" d="M113.517,104.629c0.079,0.988,1.051,1.458,2.165,1.458c0.816,0,1.475-0.11,2.118-0.313l0.314,1.616
		c-0.784,0.313-1.741,0.47-2.776,0.47c-2.604,0-4.094-1.506-4.094-3.906c0-1.945,1.208-4.094,3.875-4.094
		c2.479,0,3.419,1.929,3.419,3.827c0,0.408-0.047,0.769-0.078,0.941H113.517z M116.325,102.998c0-0.58-0.251-1.553-1.349-1.553
		c-1.004,0-1.412,0.91-1.475,1.553H116.325z"/>
	<path fill="#78B4B5" d="M119.966,102.559c0-1.129-0.032-1.867-0.063-2.525h2.055l0.079,1.412h0.063
		c0.392-1.114,1.333-1.584,2.07-1.584c0.22,0,0.33,0,0.502,0.031v2.243c-0.172-0.032-0.376-0.063-0.643-0.063
		c-0.878,0-1.475,0.471-1.631,1.208c-0.031,0.157-0.047,0.345-0.047,0.533v3.89h-2.384V102.559z"/>
	<path fill="#78B4B5" d="M125.928,102.48c0-0.957-0.032-1.772-0.063-2.447h2.008l0.11,1.035h0.047
		c0.33-0.486,1.004-1.208,2.322-1.208c0.988,0,1.772,0.502,2.102,1.302h0.031c0.282-0.392,0.627-0.706,0.988-0.926
		c0.423-0.251,0.894-0.376,1.458-0.376c1.475,0,2.588,1.035,2.588,3.325v4.518h-2.322v-4.172c0-1.114-0.36-1.757-1.129-1.757
		c-0.549,0-0.941,0.376-1.098,0.831c-0.063,0.173-0.094,0.424-0.094,0.612v4.486h-2.321v-4.298c0-0.973-0.345-1.631-1.098-1.631
		c-0.612,0-0.973,0.47-1.114,0.863c-0.079,0.188-0.094,0.408-0.094,0.596v4.471h-2.321V102.48z"/>
	<path fill="#78B4B5" d="M143.781,107.704l-0.141-0.769h-0.047c-0.502,0.612-1.286,0.941-2.196,0.941
		c-1.553,0-2.478-1.129-2.478-2.353c0-1.992,1.788-2.949,4.502-2.934v-0.11c0-0.408-0.22-0.988-1.396-0.988
		c-0.784,0-1.615,0.267-2.117,0.581l-0.439-1.537c0.533-0.298,1.584-0.674,2.98-0.674c2.557,0,3.373,1.506,3.373,3.31v2.667
		c0,0.737,0.031,1.443,0.11,1.867H143.781z M143.499,104.08c-1.255-0.016-2.228,0.282-2.228,1.208c0,0.612,0.408,0.91,0.941,0.91
		c0.596,0,1.082-0.392,1.239-0.878c0.031-0.125,0.047-0.267,0.047-0.408V104.08z"/>
	<path fill="#78B4B5" d="M147.705,102.48c0-0.957-0.032-1.772-0.063-2.447h2.071l0.109,1.051h0.047
		c0.313-0.486,1.098-1.223,2.369-1.223c1.568,0,2.745,1.035,2.745,3.294v4.549h-2.384v-4.251c0-0.988-0.345-1.663-1.208-1.663
		c-0.659,0-1.051,0.455-1.208,0.894c-0.063,0.141-0.094,0.376-0.094,0.596v4.423h-2.384V102.48z"/>
	<path fill="#78B4B5" d="M158.734,104.629c0.079,0.988,1.051,1.458,2.165,1.458c0.816,0,1.475-0.11,2.118-0.313l0.314,1.616
		c-0.784,0.313-1.741,0.47-2.776,0.47c-2.604,0-4.094-1.506-4.094-3.906c0-1.945,1.208-4.094,3.875-4.094
		c2.479,0,3.419,1.929,3.419,3.827c0,0.408-0.047,0.769-0.078,0.941H158.734z M161.542,102.998c0-0.58-0.251-1.553-1.349-1.553
		c-1.004,0-1.412,0.91-1.475,1.553H161.542z"/>
	<path fill="#78B4B5" d="M165.183,102.48c0-0.957-0.032-1.772-0.063-2.447h2.071l0.11,1.051h0.047
		c0.313-0.486,1.098-1.223,2.369-1.223c1.568,0,2.745,1.035,2.745,3.294v4.549h-2.384v-4.251c0-0.988-0.345-1.663-1.208-1.663
		c-0.659,0-1.051,0.455-1.208,0.894c-0.063,0.141-0.094,0.376-0.094,0.596v4.423h-2.384V102.48z"/>
	<path fill="#78B4B5" d="M176.95,97.837v2.196h1.709v1.757h-1.709v2.776c0,0.925,0.22,1.349,0.941,1.349
		c0.298,0,0.534-0.031,0.706-0.063l0.016,1.804c-0.313,0.125-0.878,0.204-1.553,0.204c-0.769,0-1.412-0.267-1.788-0.659
		c-0.439-0.455-0.659-1.192-0.659-2.274v-3.137h-1.02v-1.757h1.02v-1.663L176.95,97.837z"/>
	<path fill="#78B4B5" d="M181.797,104.629c0.079,0.988,1.051,1.458,2.165,1.458c0.816,0,1.475-0.11,2.118-0.313l0.314,1.616
		c-0.784,0.313-1.741,0.47-2.776,0.47c-2.604,0-4.094-1.506-4.094-3.906c0-1.945,1.208-4.094,3.875-4.094
		c2.479,0,3.419,1.929,3.419,3.827c0,0.408-0.047,0.769-0.078,0.941H181.797z M184.605,102.998c0-0.58-0.251-1.553-1.349-1.553
		c-1.004,0-1.412,0.91-1.475,1.553H184.605z"/>
</g>
<g>
	<path fill="#6EB2C2" d="M110.601,159.549c0-2.69,1.552-4.552,4-5.621v-0.104c-2.172-1.104-3.241-2.932-3.241-4.896
		c0-3.794,3.414-6.312,7.897-6.312c5.242,0,7.414,3.035,7.414,5.76c0,1.931-1.035,3.827-3.242,4.931v0.104
		c2.173,0.828,4.104,2.69,4.104,5.587c0,4.069-3.414,6.793-8.621,6.793C113.222,165.79,110.601,162.583,110.601,159.549z
		 M122.188,159.376c0-1.965-1.448-3.138-3.518-3.689c-1.724,0.482-2.724,1.725-2.724,3.345c-0.035,1.621,1.207,3.139,3.172,3.139
		C120.98,162.17,122.188,160.963,122.188,159.376z M116.291,148.755c0,1.518,1.379,2.483,3.173,3.035
		c1.207-0.346,2.276-1.449,2.276-2.862c0-1.38-0.793-2.759-2.725-2.759C117.222,146.169,116.291,147.341,116.291,148.755z"/>
	<path fill="#6EB2C2" d="M146.155,142.996v3.311l-9.242,19.104h-5.552l9.242-18.035v-0.069h-10.276v-4.311H146.155z"/>
	<path fill="#6EB2C2" d="M161.018,149.272c0,4.689-2.966,7.138-6.208,7.138c-3.414,0-6.104-2.552-6.104-6.759
		c0-4,2.448-7.035,6.276-7.035C158.846,142.616,161.018,145.444,161.018,149.272z M152.604,149.514c0,2.345,0.793,4.034,2.311,4.034
		c1.483,0,2.207-1.517,2.207-4.034c0-2.276-0.621-4.035-2.241-4.035C153.328,145.479,152.604,147.272,152.604,149.514z
		 M155.087,165.79l12.863-23.174h2.828L157.88,165.79H155.087z M177.157,158.583c0,4.69-2.966,7.139-6.208,7.139
		c-3.379,0-6.069-2.552-6.104-6.759c0-4.001,2.449-7.035,6.276-7.035C174.984,151.928,177.157,154.755,177.157,158.583z
		 M168.777,158.824c-0.035,2.346,0.758,4.035,2.276,4.035c1.483,0,2.207-1.518,2.207-4.035c0-2.275-0.586-4.034-2.207-4.034
		C169.467,154.79,168.777,156.583,168.777,158.824z"/>
</g>
<circle fill="#6BAFAF" cx="434.07" cy="150.001" r="127.279"/>
<g>
	<path fill="#4C5255" d="M492.919,69.552H374.413c-2.365,0-4.282,1.918-4.282,4.284v162.169c0,2.365,1.917,4.283,4.282,4.283
		h118.506c2.365,0,4.283-1.918,4.283-4.283V73.836C497.202,71.471,495.284,69.552,492.919,69.552z"/>
	<rect x="378.718" y="76.989" fill="#FFFFFF" width="109.898" height="154.794"/>
</g>
<path fill="#C7C6C6" d="M408.956,215.213h-21.695c-0.552,0-1.005,0.453-1.005,1.008v0.246c0,0.553,0.453,1.006,1.005,1.006h21.695
	c0.553,0,1.005-0.453,1.005-1.006v-0.246C409.961,215.666,409.509,215.213,408.956,215.213z"/>
<path fill="#C7C6C6" d="M479.452,215.213h-21.695c-0.55,0-1.003,0.453-1.003,1.008v0.246c0,0.553,0.453,1.006,1.003,1.006h21.695
	c0.554,0,1.007-0.453,1.007-1.006v-0.246C480.459,215.666,480.006,215.213,479.452,215.213z"/>
<path fill="#6EB2C2" d="M432.808,111.907h-45.547c-0.552,0-1.005,0.453-1.005,1.006v0.248c0,0.554,0.453,1.006,1.005,1.006h45.547
	c0.555,0,1.006-0.452,1.006-1.006v-0.248C433.813,112.36,433.362,111.907,432.808,111.907z"/>
<path fill="#C7C6C6" d="M480.366,117.331h-93.105c-0.552,0-1.005,0.453-1.005,1.005v0.249c0,0.554,0.453,1.007,1.005,1.007h93.105
	c0.554,0,1.007-0.453,1.007-1.007v-0.249C481.373,117.784,480.92,117.331,480.366,117.331z"/>
<path fill="#C7C6C6" d="M480.366,122.754h-93.105c-0.552,0-1.005,0.453-1.005,1.006v0.248c0,0.553,0.453,1.006,1.005,1.006h93.105
	c0.554,0,1.007-0.453,1.007-1.006v-0.248C481.373,123.207,480.92,122.754,480.366,122.754z"/>
<path fill="#C7C6C6" d="M480.366,128.176h-93.105c-0.552,0-1.005,0.453-1.005,1.007v0.248c0,0.554,0.453,1.006,1.005,1.006h93.105
	c0.554,0,1.007-0.452,1.007-1.006v-0.248C481.373,128.629,480.92,128.176,480.366,128.176z"/>
<path fill="#C7C6C6" d="M480.366,133.6h-93.105c-0.552,0-1.005,0.451-1.005,1.005v0.25c0,0.554,0.453,1.004,1.005,1.004h93.105
	c0.554,0,1.007-0.451,1.007-1.004v-0.25C481.373,134.051,480.92,133.6,480.366,133.6z"/>
<path fill="#C7C6C6" d="M480.366,171.561h-93.105c-0.552,0-1.005,0.451-1.005,1.004v0.248c0,0.553,0.453,1.006,1.005,1.006h93.105
	c0.554,0,1.007-0.453,1.007-1.006v-0.248C481.373,172.012,480.92,171.561,480.366,171.561z"/>
<path fill="#6EB2C2" d="M432.662,176.98h-45.401c-0.552,0-1.005,0.453-1.005,1.008v0.248c0,0.553,0.453,1.006,1.005,1.006h45.401
	c0.552,0,1.005-0.453,1.005-1.006v-0.248C433.667,177.434,433.214,176.98,432.662,176.98z"/>
<path fill="#C7C6C6" d="M480.366,182.404h-93.105c-0.552,0-1.005,0.453-1.005,1.006v0.248c0,0.555,0.453,1.006,1.005,1.006h93.105
	c0.554,0,1.007-0.451,1.007-1.006v-0.248C481.373,182.857,480.92,182.404,480.366,182.404z"/>
<path fill="#C7C6C6" d="M480.366,187.828h-93.105c-0.552,0-1.005,0.451-1.005,1.004v0.25c0,0.553,0.453,1.006,1.005,1.006h93.105
	c0.554,0,1.007-0.453,1.007-1.006v-0.25C481.373,188.279,480.92,187.828,480.366,187.828z"/>
<path fill="#C7C6C6" d="M480.366,193.25h-93.105c-0.552,0-1.005,0.453-1.005,1.008v0.248c0,0.551,0.453,1.004,1.005,1.004h93.105
	c0.554,0,1.007-0.453,1.007-1.004v-0.248C481.373,193.703,480.92,193.25,480.366,193.25z"/>
<path fill="#C7C6C6" d="M480.366,198.674h-93.105c-0.552,0-1.005,0.453-1.005,1.006v0.248c0,0.553,0.453,1.004,1.005,1.004h93.105
	c0.554,0,1.007-0.451,1.007-1.004v-0.248C481.373,199.127,480.92,198.674,480.366,198.674z"/>
<path fill="#C7C6C6" d="M480.366,204.096h-93.105c-0.552,0-1.005,0.453-1.005,1.006v0.25c0,0.553,0.453,1.004,1.005,1.004h93.105
	c0.554,0,1.007-0.451,1.007-1.004v-0.25C481.373,204.549,480.92,204.096,480.366,204.096z"/>
<g opacity="0.44">
	<circle fill="#DBDBDB" cx="456.363" cy="217.969" r="8.539"/>
	<g>
		<path fill="#919191" d="M456.363,226.76c-4.849,0-8.792-3.943-8.792-8.791c0-4.85,3.943-8.795,8.792-8.795
			c4.848,0,8.792,3.945,8.792,8.795C465.155,222.816,461.211,226.76,456.363,226.76z M456.363,209.684
			c-4.569,0-8.287,3.715-8.287,8.285c0,4.568,3.718,8.283,8.287,8.283c4.567,0,8.284-3.715,8.284-8.283
			C464.647,213.398,460.931,209.684,456.363,209.684z"/>
	</g>
	<g>
		<path fill="#909393" d="M457.04,211.213c-0.038,0.018-0.111,0.031-0.203,0.027c-0.219-0.01-0.373-0.154-0.361-0.406
			c0.012-0.24,0.182-0.395,0.418-0.385c0.095,0.006,0.154,0.027,0.18,0.043l-0.027,0.08c-0.036-0.02-0.09-0.035-0.154-0.039
			c-0.178-0.008-0.303,0.104-0.313,0.303c-0.009,0.188,0.094,0.313,0.279,0.32c0.061,0.004,0.123-0.006,0.163-0.023L457.04,211.213z
			"/>
		<path fill="#909393" d="M457.658,211.039c-0.029,0.203-0.181,0.27-0.313,0.252c-0.145-0.021-0.244-0.145-0.221-0.316
			c0.025-0.184,0.159-0.273,0.311-0.252C457.591,210.742,457.682,210.873,457.658,211.039z M457.223,210.986
			c-0.016,0.117,0.042,0.219,0.14,0.232c0.094,0.014,0.178-0.066,0.195-0.191c0.012-0.092-0.02-0.213-0.137-0.23
			S457.24,210.881,457.223,210.986z"/>
		<path fill="#909393" d="M457.817,210.947c0.014-0.057,0.023-0.102,0.029-0.146l0.086,0.02l-0.012,0.09l0,0
			c0.039-0.043,0.111-0.08,0.2-0.059c0.075,0.018,0.179,0.088,0.138,0.271l-0.076,0.322l-0.096-0.023l0.071-0.311
			c0.021-0.088,0.005-0.166-0.088-0.188c-0.063-0.016-0.124,0.02-0.153,0.072c-0.007,0.008-0.014,0.025-0.017,0.041l-0.075,0.322
			l-0.097-0.021L457.817,210.947z"/>
		<path fill="#909393" d="M458.649,210.846l-0.047,0.152l0.137,0.039l-0.021,0.074l-0.136-0.041l-0.089,0.281
			c-0.021,0.066-0.014,0.109,0.038,0.127c0.027,0.008,0.045,0.01,0.058,0.01l-0.019,0.072c-0.02,0.002-0.051,0-0.087-0.014
			c-0.045-0.012-0.078-0.037-0.09-0.07c-0.021-0.037-0.014-0.09,0.004-0.15l0.088-0.287l-0.08-0.025l0.021-0.072l0.081,0.025
			l0.039-0.125L458.649,210.846z"/>
		<path fill="#909393" d="M458.806,211.244c0.021-0.061,0.041-0.115,0.055-0.162l0.082,0.029l-0.033,0.104l0.002,0.002
			c0.05-0.063,0.122-0.086,0.186-0.063c0.012,0.006,0.018,0.01,0.025,0.014l-0.033,0.09c-0.01-0.006-0.018-0.01-0.028-0.014
			c-0.068-0.025-0.132,0.008-0.173,0.072c-0.006,0.012-0.014,0.025-0.02,0.041l-0.103,0.275l-0.093-0.033L458.806,211.244z"/>
		<path fill="#909393" d="M459.284,211.85l0.02-0.068h-0.002c-0.047,0.025-0.117,0.035-0.189,0.004
			c-0.101-0.043-0.12-0.141-0.089-0.213c0.056-0.119,0.193-0.139,0.387-0.049l0.005-0.012c0.019-0.043,0.042-0.123-0.061-0.168
			c-0.049-0.021-0.103-0.027-0.148-0.021l0.006-0.068c0.053-0.01,0.123,0.002,0.186,0.027c0.152,0.07,0.143,0.191,0.099,0.291
			l-0.084,0.189c-0.021,0.043-0.036,0.088-0.044,0.125L459.284,211.85z M459.384,211.586c-0.1-0.047-0.219-0.078-0.264,0.02
			c-0.027,0.057,0,0.104,0.049,0.125c0.064,0.029,0.127,0.006,0.158-0.029c0.008-0.01,0.014-0.02,0.018-0.029L459.384,211.586z"/>
		<path fill="#909393" d="M459.718,211.732l0.002,0.002c0.021-0.01,0.049-0.023,0.072-0.031l0.232-0.09l0.106,0.055l-0.294,0.098
			l0.056,0.402l-0.104-0.057l-0.043-0.326l-0.07,0.027l-0.1,0.182l-0.087-0.047l0.385-0.711l0.089,0.047L459.718,211.732z"/>
		<path fill="#909393" d="M460.423,211.668l-0.085,0.135l0.122,0.076l-0.043,0.064l-0.12-0.076l-0.157,0.252
			c-0.037,0.055-0.041,0.098,0.005,0.129c0.022,0.014,0.042,0.021,0.052,0.025l-0.035,0.066c-0.021-0.004-0.051-0.016-0.084-0.037
			c-0.037-0.025-0.063-0.057-0.066-0.094c-0.01-0.039,0.008-0.086,0.045-0.141l0.16-0.254l-0.071-0.047l0.04-0.064l0.072,0.047
			l0.069-0.111L460.423,211.668z"/>
		<path fill="#909393" d="M460.876,212.852c-0.04-0.01-0.107-0.041-0.18-0.098c-0.17-0.137-0.211-0.344-0.055-0.541
			c0.149-0.189,0.378-0.215,0.563-0.064c0.075,0.059,0.108,0.111,0.122,0.141l-0.069,0.047c-0.018-0.037-0.052-0.084-0.101-0.121
			c-0.141-0.113-0.306-0.096-0.432,0.061c-0.117,0.148-0.109,0.309,0.036,0.424c0.049,0.039,0.103,0.066,0.147,0.078
			L460.876,212.852z"/>
		<path fill="#909393" d="M461.48,213.074c-0.142,0.148-0.304,0.115-0.401,0.023c-0.105-0.105-0.115-0.264,0.006-0.391
			c0.128-0.131,0.289-0.125,0.4-0.02C461.601,212.795,461.599,212.953,461.48,213.074z M461.163,212.777
			c-0.086,0.086-0.098,0.199-0.027,0.27c0.069,0.064,0.182,0.051,0.268-0.041c0.065-0.066,0.113-0.186,0.029-0.266
			C461.347,212.658,461.234,212.699,461.163,212.777z"/>
		<path fill="#909393" d="M461.666,213.094c0.042-0.037,0.077-0.068,0.108-0.102l0.059,0.068l-0.066,0.063l0.002,0.002
			c0.059-0.014,0.14,0.002,0.199,0.068c0.051,0.059,0.094,0.178-0.049,0.301l-0.249,0.217l-0.065-0.074l0.238-0.211
			c0.069-0.057,0.102-0.131,0.039-0.201c-0.043-0.051-0.113-0.059-0.165-0.035c-0.012,0.006-0.027,0.016-0.039,0.025l-0.249,0.219
			l-0.066-0.076L461.666,213.094z"/>
		<path fill="#909393" d="M462.397,213.496l-0.127,0.096l0.086,0.113l-0.063,0.047l-0.086-0.113l-0.236,0.178
			c-0.053,0.041-0.073,0.08-0.041,0.123c0.018,0.023,0.031,0.035,0.041,0.045l-0.057,0.047c-0.019-0.01-0.039-0.031-0.064-0.063
			c-0.027-0.035-0.037-0.076-0.031-0.111c0.006-0.041,0.039-0.08,0.093-0.117l0.237-0.182l-0.05-0.066l0.06-0.045l0.053,0.068
			l0.105-0.08L462.397,213.496z"/>
		<path fill="#909393" d="M462.288,213.91c0.055-0.037,0.1-0.068,0.141-0.1l0.049,0.072l-0.086,0.063l0.002,0.006
			c0.076-0.021,0.146,0.002,0.187,0.057c0.004,0.012,0.008,0.02,0.012,0.025l-0.079,0.055c-0.004-0.01-0.008-0.02-0.016-0.031
			c-0.039-0.059-0.113-0.07-0.182-0.039c-0.014,0.006-0.027,0.014-0.041,0.021l-0.244,0.166l-0.057-0.084L462.288,213.91z"/>
		<path fill="#909393" d="M462.323,214.68l0.057-0.041l-0.002-0.002c-0.053-0.006-0.115-0.037-0.156-0.105
			c-0.056-0.096-0.018-0.186,0.055-0.227c0.113-0.064,0.234-0.002,0.343,0.184l0.01-0.004c0.038-0.023,0.103-0.076,0.046-0.174
			c-0.027-0.043-0.065-0.082-0.106-0.102l0.044-0.053c0.049,0.025,0.1,0.07,0.135,0.133c0.084,0.145,0.004,0.236-0.092,0.293
			l-0.176,0.102c-0.043,0.025-0.082,0.051-0.111,0.074L462.323,214.68z M462.559,214.527c-0.052-0.096-0.132-0.195-0.225-0.141
			c-0.056,0.033-0.06,0.086-0.036,0.131c0.036,0.061,0.1,0.078,0.148,0.066c0.012,0,0.021-0.004,0.031-0.01L462.559,214.527z"/>
		<path fill="#909393" d="M462.743,214.842l0.002,0.004c0.023,0.004,0.056,0.01,0.078,0.018l0.242,0.061l0.053,0.111l-0.299-0.096
			l-0.186,0.361l-0.054-0.111l0.157-0.285l-0.074-0.021l-0.186,0.088l-0.043-0.086l0.729-0.352l0.041,0.09L462.743,214.842z"/>
		<path fill="#909393" d="M463.356,215.203l-0.15,0.061l0.056,0.131l-0.071,0.029l-0.053-0.133l-0.275,0.109
			c-0.065,0.025-0.094,0.059-0.072,0.109c0.011,0.025,0.021,0.043,0.027,0.051l-0.066,0.033c-0.018-0.016-0.033-0.041-0.047-0.076
			c-0.018-0.045-0.018-0.084,0-0.117c0.016-0.037,0.057-0.064,0.117-0.09l0.279-0.111l-0.032-0.08l0.071-0.025l0.031,0.078
			l0.123-0.051L463.356,215.203z"/>
		<path fill="#909393" d="M463.031,216.43c-0.027-0.031-0.065-0.096-0.087-0.188c-0.061-0.209,0.028-0.402,0.27-0.469
			c0.231-0.064,0.432,0.049,0.496,0.279c0.025,0.09,0.023,0.156,0.016,0.182h-0.084c0.008-0.039,0.004-0.096-0.012-0.156
			c-0.049-0.176-0.191-0.26-0.385-0.205c-0.18,0.051-0.27,0.188-0.218,0.367c0.016,0.059,0.045,0.113,0.073,0.146L463.031,216.43z"
			/>
		<path fill="#909393" d="M463.39,216.967c-0.201,0.035-0.314-0.088-0.338-0.219c-0.026-0.146,0.059-0.281,0.23-0.311
			c0.183-0.033,0.311,0.066,0.338,0.217C463.649,216.809,463.554,216.934,463.39,216.967z M463.306,216.535
			c-0.119,0.023-0.199,0.107-0.178,0.201c0.016,0.096,0.117,0.15,0.24,0.129c0.089-0.016,0.199-0.084,0.178-0.199
			C463.524,216.547,463.409,216.516,463.306,216.535z"/>
		<path fill="#909393" d="M463.526,217.086c0.057-0.006,0.104-0.012,0.148-0.02l0.008,0.09l-0.09,0.012v0.002
			c0.053,0.023,0.11,0.082,0.119,0.174c0.008,0.074-0.029,0.197-0.216,0.213l-0.329,0.031l-0.008-0.1l0.315-0.027
			c0.089-0.01,0.159-0.049,0.151-0.143c-0.006-0.066-0.057-0.113-0.115-0.125c-0.012-0.002-0.028-0.004-0.046-0.002l-0.331,0.029
			l-0.008-0.1L463.526,217.086z"/>
		<path fill="#909393" d="M463.881,217.844l-0.157,0.004l0.002,0.141l-0.076,0.002l-0.002-0.143l-0.297,0.006
			c-0.068,0-0.107,0.02-0.105,0.076c0.002,0.025,0.005,0.047,0.009,0.059l-0.077,0.006c-0.006-0.02-0.012-0.051-0.012-0.09
			c-0.002-0.045,0.012-0.084,0.039-0.107c0.029-0.029,0.076-0.041,0.143-0.041l0.299-0.006l-0.002-0.086l0.078-0.002v0.088
			l0.133-0.004L463.881,217.844z"/>
		<path fill="#909393" d="M463.552,218.117c0.064,0,0.121,0,0.174,0l-0.004,0.086h-0.107v0.006c0.072,0.027,0.117,0.088,0.115,0.156
			c0,0.012-0.004,0.02-0.006,0.029l-0.094-0.004c0.004-0.01,0.004-0.02,0.004-0.035c0.002-0.07-0.051-0.123-0.123-0.139
			c-0.013-0.002-0.028-0.004-0.046-0.004l-0.294-0.012l0.004-0.098L463.552,218.117z"/>
		<path fill="#909393" d="M463.13,218.758l0.07-0.002v-0.002c-0.041-0.035-0.072-0.098-0.066-0.176
			c0.012-0.111,0.096-0.16,0.176-0.152c0.132,0.014,0.191,0.139,0.173,0.35l0.009,0.002c0.045,0.004,0.129,0,0.139-0.111
			c0.006-0.051-0.006-0.105-0.025-0.148l0.068-0.016c0.023,0.049,0.037,0.117,0.03,0.186c-0.017,0.168-0.136,0.197-0.246,0.188
			l-0.203-0.021c-0.048-0.004-0.097-0.008-0.134-0.004L463.13,218.758z M463.411,218.771c0.012-0.107,0.006-0.234-0.102-0.244
			c-0.063-0.008-0.1,0.033-0.104,0.084c-0.008,0.07,0.034,0.123,0.078,0.143c0.01,0.004,0.021,0.008,0.031,0.008L463.411,218.771z"
			/>
		<path fill="#909393" d="M463.376,219.135v0.002c0.018,0.016,0.035,0.041,0.053,0.059l0.158,0.193l-0.02,0.121l-0.186-0.25
			l-0.362,0.18l0.021-0.119l0.292-0.141l-0.047-0.061l-0.202-0.037l0.017-0.098l0.796,0.143l-0.019,0.1L463.376,219.135z"/>
		<path fill="#909393" d="M463.659,219.787l-0.153-0.039l-0.035,0.139l-0.073-0.02l0.034-0.139l-0.288-0.072
			c-0.065-0.016-0.108-0.006-0.122,0.047c-0.006,0.027-0.006,0.047-0.006,0.059l-0.075-0.014c-0.002-0.02,0-0.051,0.01-0.09
			c0.01-0.043,0.032-0.078,0.065-0.094c0.036-0.02,0.085-0.018,0.149-0.004l0.29,0.074l0.021-0.082l0.073,0.018l-0.021,0.082
			l0.128,0.031L463.659,219.787z"/>
		<path fill="#909393" d="M462.679,220.59c-0.004-0.043,0.004-0.117,0.037-0.203c0.074-0.205,0.26-0.309,0.494-0.221
			c0.227,0.082,0.324,0.293,0.241,0.516c-0.034,0.09-0.073,0.139-0.095,0.158l-0.07-0.051c0.031-0.027,0.063-0.074,0.086-0.133
			c0.062-0.17-0.004-0.322-0.195-0.391c-0.175-0.066-0.326-0.008-0.39,0.17c-0.021,0.057-0.032,0.117-0.026,0.162L462.679,220.59z"
			/>
		<path fill="#909393" d="M462.655,221.232c-0.182-0.088-0.201-0.254-0.146-0.373c0.067-0.135,0.215-0.191,0.371-0.117
			c0.167,0.08,0.211,0.234,0.147,0.373C462.96,221.258,462.809,221.305,462.655,221.232z M462.841,220.834
			c-0.109-0.049-0.222-0.027-0.265,0.061c-0.04,0.088,0.01,0.189,0.122,0.244c0.082,0.039,0.211,0.047,0.262-0.059
			C463.01,220.975,462.935,220.883,462.841,220.834z"/>
		<path fill="#909393" d="M462.696,221.412c0.047,0.027,0.091,0.051,0.131,0.072l-0.047,0.076l-0.078-0.041l-0.004,0.002
			c0.033,0.049,0.043,0.129-0.004,0.209c-0.039,0.064-0.138,0.143-0.301,0.047l-0.282-0.168l0.052-0.086l0.271,0.164
			c0.078,0.043,0.157,0.053,0.206-0.027c0.034-0.059,0.019-0.125-0.019-0.17c-0.01-0.01-0.023-0.02-0.036-0.029l-0.286-0.168
			l0.052-0.086L462.696,221.412z"/>
		<path fill="#909393" d="M462.543,222.232l-0.128-0.09l-0.084,0.117l-0.063-0.043l0.083-0.119l-0.246-0.168
			c-0.054-0.041-0.099-0.047-0.13,0c-0.014,0.021-0.021,0.039-0.027,0.053l-0.063-0.039c0.004-0.023,0.017-0.051,0.04-0.082
			c0.027-0.039,0.059-0.061,0.096-0.064c0.041-0.006,0.085,0.012,0.139,0.049l0.248,0.172l0.051-0.07l0.061,0.045l-0.049,0.068
			l0.11,0.076L462.543,222.232z"/>
		<path fill="#909393" d="M462.117,222.26c0.049,0.041,0.095,0.072,0.138,0.102l-0.055,0.07l-0.087-0.064l-0.004,0.004
			c0.043,0.064,0.043,0.141,0.004,0.193c-0.008,0.012-0.014,0.016-0.021,0.023l-0.073-0.059c0.008-0.008,0.016-0.016,0.023-0.025
			c0.041-0.057,0.031-0.129-0.02-0.186c-0.01-0.012-0.021-0.023-0.035-0.033l-0.232-0.18l0.061-0.076L462.117,222.26z"/>
		<path fill="#909393" d="M461.394,222.533l0.059,0.043l0.002-0.004c-0.012-0.053-0.002-0.121,0.051-0.18
			c0.074-0.084,0.171-0.074,0.23-0.021c0.1,0.088,0.074,0.225-0.069,0.383l0.012,0.008c0.032,0.031,0.101,0.076,0.177-0.008
			c0.034-0.039,0.058-0.09,0.064-0.135l0.064,0.027c-0.008,0.053-0.037,0.115-0.083,0.166c-0.11,0.127-0.227,0.082-0.31,0.008
			l-0.152-0.137c-0.035-0.033-0.072-0.061-0.105-0.082L461.394,222.533z M461.614,222.709c0.075-0.08,0.141-0.186,0.063-0.256
			c-0.05-0.043-0.101-0.031-0.136,0.008c-0.047,0.053-0.043,0.117-0.02,0.16c0.006,0.01,0.012,0.018,0.02,0.025L461.614,222.709z"/>
		<path fill="#909393" d="M461.374,222.984l-0.002,0.002c0.002,0.023,0.004,0.055,0.008,0.08l0.014,0.248l-0.088,0.082l-0.002-0.309
			l-0.4-0.066l0.09-0.084l0.318,0.057l-0.002-0.074l-0.143-0.15l0.071-0.068l0.56,0.582l-0.071,0.068L461.374,222.984z"/>
		<path fill="#909393" d="M461.221,223.676l-0.101-0.119l-0.11,0.092l-0.05-0.059l0.111-0.094l-0.193-0.227
			c-0.043-0.053-0.083-0.068-0.126-0.033c-0.021,0.018-0.03,0.033-0.038,0.045l-0.053-0.057c0.01-0.016,0.029-0.041,0.061-0.066
			c0.033-0.029,0.073-0.043,0.108-0.037c0.04,0.004,0.081,0.033,0.122,0.084l0.193,0.229l0.065-0.055l0.05,0.059l-0.066,0.055
			l0.086,0.102L461.221,223.676z"/>
		<path fill="#909393" d="M459.959,223.752c0.021-0.033,0.073-0.09,0.148-0.143c0.179-0.121,0.39-0.098,0.53,0.111
			c0.134,0.199,0.092,0.424-0.107,0.557c-0.08,0.055-0.14,0.07-0.169,0.074l-0.025-0.082c0.041-0.006,0.091-0.021,0.146-0.059
			c0.15-0.102,0.186-0.264,0.072-0.43c-0.105-0.156-0.262-0.195-0.416-0.092c-0.051,0.035-0.094,0.08-0.115,0.119L459.959,223.752z"
			/>
		<path fill="#909393" d="M459.562,224.264c-0.097-0.178-0.016-0.326,0.102-0.389c0.131-0.072,0.284-0.033,0.369,0.121
			c0.087,0.162,0.031,0.314-0.1,0.387C459.794,224.461,459.646,224.41,459.562,224.264z M459.942,224.047
			c-0.056-0.104-0.162-0.152-0.248-0.104c-0.082,0.047-0.102,0.158-0.043,0.268c0.045,0.082,0.143,0.162,0.247,0.107
			C460.001,224.262,459.993,224.139,459.942,224.047z"/>
		<path fill="#909393" d="M459.489,224.432c0.023,0.053,0.043,0.096,0.063,0.135l-0.079,0.037l-0.042-0.082h-0.002
			c-0.005,0.061-0.041,0.131-0.127,0.168c-0.07,0.031-0.195,0.037-0.271-0.137l-0.131-0.301l0.091-0.039l0.128,0.289
			c0.035,0.082,0.094,0.137,0.182,0.1c0.061-0.027,0.09-0.092,0.084-0.148c-0.002-0.012-0.006-0.029-0.012-0.047l-0.134-0.303
			l0.091-0.039L459.489,224.432z"/>
		<path fill="#909393" d="M458.886,225.008l-0.053-0.148l-0.137,0.049l-0.027-0.072l0.137-0.049l-0.1-0.279
			c-0.021-0.064-0.053-0.094-0.105-0.076c-0.024,0.01-0.042,0.02-0.054,0.025l-0.029-0.07c0.018-0.014,0.043-0.029,0.08-0.041
			c0.044-0.016,0.085-0.014,0.118,0.004c0.035,0.018,0.06,0.061,0.083,0.123l0.101,0.283l0.08-0.027l0.024,0.07l-0.079,0.027
			l0.043,0.127L458.886,225.008z"/>
		<path fill="#909393" d="M458.521,224.779c0.02,0.064,0.037,0.117,0.053,0.164l-0.081,0.025l-0.035-0.102l-0.006,0.002
			c-0.004,0.076-0.047,0.137-0.112,0.156c-0.01,0.004-0.019,0.004-0.028,0.004l-0.027-0.088c0.012-0.002,0.023-0.004,0.035-0.008
			c0.066-0.02,0.1-0.086,0.092-0.162c0-0.014-0.002-0.029-0.008-0.045l-0.082-0.281l0.094-0.027L458.521,224.779z"/>
		<path fill="#909393" d="M457.778,224.58l0.021,0.066l0.004-0.002c0.021-0.047,0.069-0.098,0.146-0.115
			c0.109-0.025,0.181,0.039,0.198,0.117c0.03,0.131-0.071,0.229-0.28,0.273l0.002,0.012c0.01,0.045,0.042,0.119,0.152,0.096
			c0.05-0.012,0.097-0.039,0.131-0.072l0.035,0.061c-0.037,0.039-0.097,0.072-0.166,0.088c-0.166,0.037-0.229-0.066-0.254-0.176
			l-0.043-0.199c-0.01-0.049-0.023-0.092-0.036-0.127L457.778,224.58z M457.853,224.852c0.107-0.021,0.223-0.066,0.199-0.172
			c-0.012-0.063-0.063-0.084-0.111-0.072c-0.07,0.018-0.105,0.07-0.109,0.119c-0.002,0.01-0.002,0.021,0,0.031L457.853,224.852z"/>
		<path fill="#909393" d="M457.497,224.932h-0.004c-0.01,0.021-0.025,0.049-0.039,0.07l-0.133,0.209l-0.12,0.018l0.181-0.252
			l-0.285-0.289l0.12-0.016l0.224,0.234l0.043-0.064l-0.027-0.205l0.098-0.012l0.112,0.799l-0.097,0.014L457.497,224.932z"/>
		<path fill="#909393" d="M456.968,225.402l-0.014-0.156l-0.141,0.012l-0.005-0.078l0.144-0.01l-0.023-0.295
			c-0.004-0.068-0.027-0.107-0.082-0.102c-0.026,0.002-0.046,0.006-0.058,0.01l-0.01-0.072c0.018-0.012,0.047-0.018,0.087-0.021
			c0.047-0.002,0.086,0.01,0.111,0.035c0.03,0.025,0.044,0.074,0.049,0.139l0.021,0.301l0.086-0.008l0.006,0.078l-0.086,0.004
			l0.012,0.133L456.968,225.402z"/>
		<path fill="#909393" d="M455.898,224.727c0.036-0.018,0.11-0.033,0.204-0.029c0.214,0.008,0.373,0.15,0.363,0.4
			c-0.006,0.24-0.175,0.396-0.412,0.389c-0.098-0.004-0.155-0.027-0.183-0.041l0.027-0.08c0.038,0.02,0.091,0.035,0.155,0.037
			c0.178,0.006,0.302-0.104,0.31-0.307c0.006-0.188-0.099-0.311-0.284-0.316c-0.061-0.002-0.123,0.008-0.163,0.025L455.898,224.727z
			"/>
		<path fill="#909393" d="M455.28,224.908c0.025-0.203,0.175-0.271,0.307-0.258c0.148,0.02,0.249,0.141,0.229,0.314
			c-0.023,0.184-0.155,0.275-0.307,0.258C455.353,225.201,455.261,225.074,455.28,224.908z M455.714,224.955
			c0.016-0.119-0.042-0.219-0.141-0.23c-0.093-0.012-0.176,0.068-0.191,0.191c-0.012,0.092,0.021,0.217,0.137,0.232
			C455.638,225.16,455.702,225.061,455.714,224.955z"/>
		<path fill="#909393" d="M455.122,225.002c-0.012,0.055-0.021,0.102-0.027,0.146l-0.085-0.02l0.013-0.092h-0.004
			c-0.036,0.047-0.109,0.084-0.197,0.064c-0.076-0.018-0.184-0.088-0.143-0.271l0.07-0.32l0.098,0.021l-0.067,0.309
			c-0.019,0.088-0.002,0.166,0.091,0.186c0.063,0.016,0.124-0.02,0.152-0.07c0.007-0.012,0.013-0.027,0.017-0.045l0.071-0.322
			l0.097,0.021L455.122,225.002z"/>
		<path fill="#909393" d="M454.296,225.115l0.043-0.152l-0.137-0.041l0.02-0.072l0.141,0.041l0.082-0.285
			c0.02-0.066,0.014-0.109-0.041-0.123c-0.025-0.01-0.045-0.01-0.059-0.01l0.018-0.076c0.023-0.002,0.053,0.002,0.088,0.014
			c0.046,0.014,0.078,0.039,0.093,0.072c0.02,0.035,0.016,0.084-0.004,0.148l-0.085,0.287l0.083,0.023l-0.022,0.072l-0.08-0.023
			l-0.041,0.127L454.296,225.115z"/>
		<path fill="#909393" d="M454.134,224.719c-0.022,0.061-0.04,0.113-0.055,0.164l-0.082-0.031l0.035-0.104l-0.008-0.002
			c-0.047,0.063-0.119,0.088-0.184,0.064c-0.012-0.004-0.018-0.008-0.025-0.014l0.031-0.088c0.01,0.006,0.019,0.01,0.032,0.014
			c0.067,0.021,0.132-0.01,0.168-0.076c0.007-0.01,0.016-0.025,0.021-0.043l0.1-0.275l0.092,0.033L454.134,224.719z"/>
		<path fill="#909393" d="M453.646,224.119l-0.021,0.066l0.004,0.002c0.044-0.027,0.113-0.039,0.186-0.008
			c0.104,0.045,0.125,0.139,0.094,0.211c-0.053,0.121-0.191,0.143-0.387,0.057l-0.004,0.012c-0.018,0.039-0.039,0.121,0.064,0.166
			c0.047,0.02,0.101,0.025,0.146,0.018l-0.004,0.07c-0.054,0.01-0.121,0.002-0.188-0.025c-0.154-0.066-0.145-0.189-0.102-0.291
			l0.082-0.189c0.02-0.043,0.037-0.088,0.043-0.123L453.646,224.119z M453.548,224.381c0.099,0.049,0.223,0.08,0.266-0.02
			c0.023-0.061-0.004-0.104-0.051-0.123c-0.065-0.031-0.126-0.006-0.158,0.029c-0.007,0.01-0.012,0.018-0.018,0.027L453.548,224.381
			z"/>
		<path fill="#909393" d="M453.215,224.24h-0.004c-0.02,0.012-0.049,0.023-0.071,0.031l-0.232,0.094l-0.105-0.057l0.295-0.102
			l-0.063-0.398l0.105,0.057l0.046,0.322l0.07-0.027l0.099-0.182l0.085,0.045l-0.378,0.713l-0.085-0.045L453.215,224.24z"/>
		<path fill="#909393" d="M452.507,224.314l0.084-0.135l-0.123-0.076l0.041-0.064l0.123,0.074l0.155-0.252
			c0.034-0.059,0.04-0.102-0.008-0.131c-0.023-0.014-0.04-0.02-0.054-0.023l0.036-0.066c0.02,0.002,0.05,0.014,0.083,0.035
			c0.039,0.023,0.063,0.057,0.07,0.092c0.01,0.041-0.01,0.086-0.045,0.143l-0.154,0.256l0.071,0.045l-0.041,0.064l-0.071-0.045
			l-0.068,0.113L452.507,224.314z"/>
		<path fill="#909393" d="M452.04,223.137c0.039,0.008,0.107,0.039,0.182,0.096c0.17,0.135,0.217,0.34,0.062,0.541
			c-0.149,0.188-0.377,0.219-0.563,0.068c-0.074-0.057-0.111-0.107-0.125-0.137l0.07-0.049c0.018,0.037,0.053,0.082,0.104,0.119
			c0.141,0.111,0.307,0.094,0.428-0.064c0.116-0.148,0.106-0.311-0.041-0.426c-0.047-0.037-0.104-0.064-0.146-0.074L452.04,223.137z
			"/>
		<path fill="#909393" d="M451.432,222.92c0.14-0.148,0.302-0.117,0.401-0.025c0.109,0.102,0.117,0.26-0.001,0.387
			c-0.128,0.135-0.29,0.131-0.4,0.027C451.317,223.201,451.317,223.045,451.432,222.92z M451.757,223.213
			c0.08-0.086,0.094-0.201,0.021-0.268c-0.07-0.064-0.186-0.049-0.27,0.043c-0.063,0.068-0.109,0.186-0.021,0.268
			C451.573,223.338,451.685,223.293,451.757,223.213z"/>
		<path fill="#909393" d="M451.249,222.904c-0.043,0.037-0.076,0.068-0.109,0.102l-0.061-0.066l0.064-0.064l-0.002-0.002
			c-0.055,0.014-0.138,0-0.197-0.066c-0.051-0.057-0.096-0.176,0.046-0.301l0.245-0.221l0.066,0.076l-0.238,0.213
			c-0.065,0.057-0.099,0.131-0.034,0.201c0.044,0.051,0.112,0.059,0.165,0.033c0.012-0.006,0.026-0.016,0.039-0.027l0.247-0.219
			l0.065,0.074L451.249,222.904z"/>
		<path fill="#909393" d="M450.512,222.51l0.124-0.098l-0.087-0.111l0.058-0.049l0.09,0.115l0.235-0.182
			c0.053-0.043,0.072-0.082,0.039-0.125c-0.016-0.021-0.031-0.033-0.043-0.043l0.059-0.049c0.018,0.012,0.041,0.031,0.063,0.063
			c0.029,0.035,0.039,0.074,0.033,0.111c-0.006,0.041-0.037,0.08-0.089,0.117l-0.238,0.186l0.054,0.066l-0.062,0.047l-0.052-0.068
			l-0.105,0.082L450.512,222.51z"/>
		<path fill="#909393" d="M450.614,222.096c-0.053,0.037-0.099,0.07-0.14,0.104l-0.048-0.074l0.085-0.064l-0.002-0.004
			c-0.073,0.021-0.146-0.002-0.187-0.057c-0.006-0.008-0.01-0.018-0.013-0.025l0.077-0.053c0.006,0.01,0.008,0.02,0.018,0.031
			c0.041,0.057,0.112,0.066,0.183,0.035c0.011-0.006,0.026-0.014,0.038-0.023l0.242-0.164l0.057,0.08L450.614,222.096z"/>
		<path fill="#909393" d="M450.569,221.326l-0.056,0.043l0.002,0.002c0.053,0.004,0.116,0.035,0.159,0.104
			c0.055,0.096,0.018,0.186-0.051,0.225c-0.115,0.07-0.238,0.004-0.348-0.178l-0.01,0.006c-0.039,0.023-0.102,0.076-0.043,0.172
			c0.023,0.045,0.066,0.084,0.106,0.104l-0.042,0.051c-0.051-0.023-0.1-0.068-0.137-0.129c-0.086-0.143-0.01-0.238,0.086-0.295
			l0.178-0.105c0.041-0.023,0.078-0.051,0.106-0.076L450.569,221.326z M450.337,221.482c0.053,0.098,0.135,0.193,0.225,0.137
			c0.055-0.033,0.059-0.084,0.033-0.129c-0.036-0.063-0.1-0.076-0.145-0.066c-0.012,0.002-0.023,0.006-0.033,0.01L450.337,221.482z"
			/>
		<path fill="#909393" d="M450.146,221.168v-0.002c-0.023-0.004-0.054-0.01-0.08-0.016l-0.24-0.061l-0.053-0.107l0.297,0.09
			l0.182-0.361l0.055,0.109l-0.152,0.287l0.074,0.02l0.186-0.09l0.043,0.09l-0.725,0.357l-0.042-0.09L450.146,221.168z"/>
		<path fill="#909393" d="M449.532,220.816l0.146-0.059l-0.056-0.133l0.071-0.029l0.055,0.131l0.275-0.113
			c0.062-0.025,0.091-0.061,0.067-0.109c-0.01-0.025-0.02-0.043-0.027-0.053l0.067-0.031c0.016,0.016,0.031,0.041,0.045,0.076
			c0.02,0.043,0.021,0.082,0.004,0.117c-0.016,0.037-0.057,0.066-0.118,0.09l-0.276,0.115l0.031,0.078l-0.068,0.029l-0.035-0.08
			l-0.121,0.053L449.532,220.816z"/>
		<path fill="#909393" d="M449.841,219.59c0.026,0.029,0.064,0.094,0.092,0.186c0.061,0.205-0.025,0.402-0.267,0.471
			c-0.231,0.068-0.433-0.043-0.499-0.27c-0.027-0.092-0.025-0.158-0.021-0.186h0.087c-0.007,0.041-0.007,0.096,0.013,0.156
			c0.05,0.174,0.193,0.256,0.387,0.201c0.181-0.055,0.267-0.191,0.214-0.369c-0.018-0.059-0.047-0.115-0.074-0.148L449.841,219.59z"
			/>
		<path fill="#909393" d="M449.476,219.059c0.2-0.039,0.313,0.082,0.338,0.215c0.031,0.145-0.055,0.279-0.228,0.311
			c-0.18,0.037-0.312-0.061-0.338-0.211C449.217,219.217,449.31,219.092,449.476,219.059z M449.565,219.486
			c0.117-0.021,0.193-0.107,0.174-0.203c-0.018-0.096-0.119-0.148-0.242-0.125c-0.091,0.018-0.199,0.088-0.176,0.203
			C449.347,219.477,449.462,219.508,449.565,219.486z"/>
		<path fill="#909393" d="M449.335,218.936c-0.057,0.006-0.102,0.012-0.147,0.021l-0.008-0.09l0.089-0.014v-0.002
			c-0.056-0.023-0.111-0.082-0.122-0.172c-0.007-0.074,0.027-0.197,0.214-0.217l0.327-0.033l0.011,0.098l-0.316,0.035
			c-0.088,0.008-0.159,0.047-0.148,0.141c0.007,0.066,0.059,0.113,0.115,0.125c0.014,0.004,0.029,0.004,0.047,0.002l0.33-0.033
			l0.01,0.1L449.335,218.936z"/>
		<path fill="#909393" d="M448.971,218.186l0.157-0.008l-0.004-0.141l0.075-0.004l0.004,0.145l0.298-0.01
			c0.07-0.002,0.105-0.023,0.105-0.078c-0.002-0.027-0.007-0.045-0.01-0.059l0.076-0.006c0.008,0.02,0.015,0.049,0.017,0.09
			c0,0.045-0.014,0.084-0.039,0.107c-0.029,0.027-0.075,0.041-0.144,0.043l-0.3,0.008l0.004,0.088h-0.077l-0.002-0.084l-0.133,0.004
			L448.971,218.186z"/>
		<path fill="#909393" d="M449.296,217.908c-0.064-0.002-0.119-0.002-0.172,0l0.004-0.086l0.106-0.002v-0.006
			c-0.074-0.025-0.118-0.086-0.116-0.152c0-0.012,0.002-0.021,0.004-0.031l0.095,0.004c-0.004,0.01-0.006,0.02-0.006,0.033
			c0,0.072,0.052,0.123,0.126,0.137c0.016,0.004,0.029,0.006,0.049,0.006l0.292,0.006l-0.002,0.1L449.296,217.908z"/>
		<path fill="#909393" d="M449.712,217.262l-0.069,0.002l-0.002,0.002c0.042,0.035,0.073,0.096,0.067,0.176
			c-0.01,0.111-0.092,0.16-0.17,0.154c-0.134-0.012-0.195-0.135-0.176-0.348l-0.014-0.002c-0.045-0.004-0.126,0.002-0.138,0.113
			c-0.004,0.053,0.008,0.107,0.029,0.146l-0.066,0.018c-0.027-0.047-0.04-0.115-0.034-0.184c0.014-0.17,0.133-0.199,0.242-0.189
			l0.204,0.018c0.049,0.004,0.097,0.006,0.132,0.002L449.712,217.262z M449.432,217.252c-0.014,0.107-0.004,0.232,0.103,0.244
			c0.063,0.004,0.099-0.035,0.103-0.088c0.006-0.07-0.035-0.121-0.079-0.141c-0.01-0.004-0.021-0.008-0.031-0.008L449.432,217.252z"
			/>
		<path fill="#909393" d="M449.46,216.887l0.002-0.004c-0.019-0.016-0.041-0.037-0.058-0.057l-0.159-0.191l0.021-0.119l0.188,0.246
			l0.359-0.184l-0.02,0.119l-0.293,0.145l0.049,0.059l0.203,0.033l-0.016,0.1l-0.799-0.135l0.018-0.096L449.46,216.887z"/>
		<path fill="#909393" d="M449.167,216.238l0.154,0.037l0.035-0.141l0.071,0.018l-0.032,0.139l0.29,0.068
			c0.065,0.016,0.11,0.006,0.12-0.047c0.008-0.025,0.008-0.047,0.008-0.059l0.074,0.012c0.003,0.021,0.003,0.053-0.007,0.09
			c-0.01,0.045-0.033,0.078-0.067,0.096c-0.035,0.02-0.086,0.02-0.147,0.004l-0.292-0.068l-0.02,0.082l-0.076-0.016l0.02-0.084
			l-0.128-0.029L449.167,216.238z"/>
		<path fill="#909393" d="M450.137,215.424c0.005,0.039-0.001,0.117-0.033,0.203c-0.073,0.203-0.256,0.313-0.492,0.227
			c-0.226-0.078-0.325-0.287-0.247-0.512c0.033-0.09,0.074-0.139,0.094-0.16l0.068,0.049c-0.029,0.031-0.061,0.076-0.081,0.137
			c-0.06,0.17,0.007,0.32,0.197,0.387c0.177,0.063,0.327,0.002,0.39-0.176c0.021-0.055,0.028-0.117,0.023-0.16L450.137,215.424z"/>
		<path fill="#909393" d="M450.151,214.779c0.186,0.086,0.207,0.252,0.152,0.373c-0.063,0.135-0.212,0.191-0.369,0.121
			c-0.166-0.08-0.217-0.232-0.15-0.371C449.849,214.758,450.001,214.709,450.151,214.779z M449.974,215.18
			c0.11,0.049,0.221,0.023,0.262-0.064c0.041-0.086-0.012-0.189-0.122-0.24c-0.087-0.039-0.212-0.047-0.263,0.059
			C449.802,215.043,449.879,215.135,449.974,215.18z"/>
		<path fill="#909393" d="M450.109,214.6c-0.049-0.029-0.089-0.049-0.13-0.068l0.045-0.078l0.081,0.041v-0.002
			c-0.031-0.051-0.043-0.131,0.002-0.209c0.038-0.066,0.138-0.148,0.298-0.053l0.287,0.164l-0.051,0.088l-0.275-0.158
			c-0.076-0.045-0.156-0.053-0.205,0.027c-0.032,0.059-0.016,0.125,0.023,0.17c0.008,0.01,0.021,0.02,0.037,0.027l0.287,0.164
			l-0.049,0.09L450.109,214.6z"/>
		<path fill="#909393" d="M450.253,213.775l0.129,0.09l0.084-0.117l0.062,0.041l-0.079,0.121l0.246,0.166
			c0.056,0.039,0.098,0.043,0.131-0.004c0.014-0.021,0.02-0.039,0.025-0.051l0.064,0.037c-0.002,0.021-0.016,0.051-0.037,0.082
			c-0.027,0.041-0.061,0.064-0.095,0.066c-0.044,0.006-0.089-0.012-0.144-0.047l-0.246-0.17l-0.051,0.07l-0.063-0.041l0.05-0.072
			l-0.108-0.074L450.253,213.775z"/>
		<path fill="#909393" d="M450.681,213.744c-0.055-0.039-0.098-0.072-0.142-0.1l0.054-0.07l0.088,0.063l0.004-0.004
			c-0.045-0.064-0.045-0.139-0.004-0.195c0.006-0.008,0.014-0.014,0.02-0.02l0.076,0.057c-0.01,0.008-0.017,0.016-0.023,0.025
			c-0.043,0.055-0.031,0.129,0.021,0.184c0.01,0.01,0.019,0.021,0.034,0.033l0.234,0.178l-0.062,0.08L450.681,213.744z"/>
		<path fill="#909393" d="M451.397,213.463l-0.059-0.039l-0.002,0.002c0.012,0.053,0.004,0.123-0.049,0.182
			c-0.072,0.084-0.17,0.074-0.232,0.023c-0.098-0.088-0.075-0.225,0.064-0.385l-0.008-0.008c-0.035-0.029-0.104-0.074-0.178,0.012
			c-0.033,0.039-0.057,0.09-0.064,0.137l-0.064-0.027c0.008-0.055,0.037-0.115,0.084-0.17c0.108-0.127,0.223-0.082,0.306-0.012
			l0.157,0.139c0.035,0.029,0.071,0.059,0.104,0.078L451.397,213.463z M451.175,213.291c-0.074,0.08-0.141,0.188-0.061,0.258
			c0.051,0.041,0.102,0.027,0.135-0.01c0.047-0.055,0.043-0.119,0.018-0.162c-0.004-0.008-0.012-0.018-0.021-0.025L451.175,213.291z
			"/>
		<path fill="#909393" d="M451.41,213.012h0.004c-0.006-0.023-0.007-0.055-0.01-0.08l-0.021-0.248l0.087-0.084l0.008,0.309
			l0.402,0.061l-0.087,0.086L451.472,213l0.005,0.076l0.146,0.148l-0.07,0.068l-0.569-0.574l0.071-0.068L451.41,213.012z"/>
		<path fill="#909393" d="M451.556,212.316l0.103,0.119l0.11-0.092l0.048,0.057l-0.108,0.094l0.195,0.225
			c0.045,0.051,0.086,0.066,0.127,0.031c0.02-0.018,0.031-0.031,0.039-0.043l0.052,0.055c-0.008,0.018-0.026,0.041-0.056,0.066
			c-0.037,0.031-0.074,0.045-0.109,0.041c-0.043-0.006-0.083-0.035-0.124-0.086l-0.197-0.225l-0.063,0.055l-0.053-0.057l0.068-0.057
			l-0.088-0.098L451.556,212.316z"/>
		<path fill="#909393" d="M452.818,212.225c-0.02,0.035-0.07,0.092-0.147,0.145c-0.176,0.123-0.388,0.104-0.531-0.104
			c-0.137-0.199-0.096-0.424,0.102-0.561c0.077-0.053,0.137-0.072,0.166-0.074l0.027,0.08c-0.041,0.006-0.091,0.025-0.145,0.063
			c-0.148,0.102-0.182,0.264-0.066,0.43c0.106,0.154,0.264,0.193,0.416,0.086c0.053-0.035,0.095-0.08,0.116-0.117L452.818,212.225z"
			/>
		<path fill="#909393" d="M453.207,211.709c0.101,0.18,0.021,0.322-0.095,0.389c-0.131,0.074-0.285,0.037-0.37-0.115
			c-0.091-0.162-0.04-0.314,0.093-0.389C452.974,211.516,453.124,211.561,453.207,211.709z M452.827,211.928
			c0.061,0.105,0.166,0.15,0.252,0.104c0.083-0.047,0.101-0.16,0.041-0.268c-0.047-0.082-0.146-0.162-0.25-0.105
			C452.77,211.717,452.777,211.838,452.827,211.928z"/>
		<path fill="#909393" d="M453.278,211.539c-0.023-0.051-0.044-0.094-0.067-0.135l0.083-0.037l0.041,0.082l0.002-0.002
			c0.004-0.059,0.041-0.129,0.123-0.168c0.072-0.031,0.198-0.037,0.275,0.133l0.134,0.301l-0.089,0.041l-0.134-0.289
			c-0.035-0.082-0.095-0.137-0.181-0.098c-0.061,0.027-0.09,0.092-0.082,0.15c0.002,0.014,0.006,0.029,0.014,0.043l0.137,0.305
			l-0.091,0.039L453.278,211.539z"/>
		<path fill="#909393" d="M453.876,210.955l0.053,0.148l0.135-0.049l0.026,0.072l-0.136,0.049l0.103,0.279
			c0.024,0.064,0.057,0.092,0.11,0.074c0.021-0.008,0.039-0.018,0.051-0.027l0.029,0.07c-0.014,0.014-0.041,0.029-0.078,0.043
			c-0.044,0.016-0.085,0.014-0.117-0.002c-0.035-0.018-0.063-0.063-0.084-0.123l-0.104-0.281l-0.082,0.029l-0.025-0.072l0.08-0.029
			l-0.043-0.125L453.876,210.955z"/>
		<path fill="#909393" d="M454.241,211.178c-0.02-0.063-0.037-0.115-0.057-0.164l0.086-0.025l0.034,0.104h0.004
			c0.003-0.08,0.046-0.141,0.112-0.162c0.01-0.002,0.018-0.004,0.027-0.004l0.029,0.088c-0.012,0.002-0.021,0.004-0.035,0.008
			c-0.068,0.021-0.101,0.086-0.092,0.164c0.002,0.012,0.004,0.029,0.012,0.047l0.086,0.279l-0.098,0.027L454.241,211.178z"/>
		<path fill="#909393" d="M454.986,211.369l-0.023-0.064h-0.004c-0.02,0.049-0.069,0.1-0.146,0.117
			c-0.107,0.025-0.182-0.037-0.199-0.115c-0.031-0.131,0.068-0.227,0.275-0.275l-0.002-0.01c-0.012-0.045-0.043-0.123-0.152-0.096
			c-0.051,0.012-0.098,0.039-0.129,0.072l-0.036-0.059c0.036-0.041,0.095-0.072,0.163-0.09c0.164-0.037,0.229,0.064,0.255,0.172
			l0.047,0.199c0.012,0.049,0.024,0.094,0.04,0.129L454.986,211.369z M454.907,211.098c-0.105,0.023-0.223,0.07-0.199,0.174
			c0.016,0.066,0.064,0.084,0.117,0.074c0.068-0.018,0.102-0.074,0.105-0.121c0.002-0.012,0.002-0.023,0-0.033L454.907,211.098z"/>
		<path fill="#909393" d="M455.263,211.012h0.002c0.012-0.02,0.027-0.047,0.039-0.068l0.132-0.213l0.118-0.016l-0.174,0.254
			l0.287,0.285l-0.119,0.016l-0.229-0.23l-0.043,0.064l0.031,0.205l-0.097,0.016l-0.124-0.801l0.1-0.014L455.263,211.012z"/>
		<path fill="#909393" d="M455.788,210.535l0.014,0.158l0.143-0.014l0.006,0.074l-0.141,0.014l0.023,0.297
			c0.005,0.066,0.028,0.104,0.085,0.1c0.026-0.002,0.044-0.008,0.056-0.012l0.014,0.074c-0.021,0.01-0.05,0.018-0.089,0.021
			c-0.047,0.006-0.085-0.006-0.11-0.033c-0.033-0.027-0.045-0.074-0.053-0.139l-0.025-0.299l-0.084,0.006l-0.008-0.076l0.084-0.006
			l-0.01-0.133L455.788,210.535z"/>
	</g>
</g>
<g>
	<g>
		<path fill="#CDA477" d="M515.366,210.018l-4.033,0.002l2.02,10.098l0.889,4.447c0.246,1.234,2.01,1.234,2.256,0l0.889-4.447
			l2.012-10.1H515.366z"/>
		<polygon fill="#3B4A53" points="515.354,221.713 513.669,221.727 514.517,226.123 515.425,230.506 516.265,226.102 
			517.063,221.701 		"/>
	</g>
	<g>
		<path fill="#C86C55" d="M518.135,104.028h-5.537c-0.424,0-0.767,0.342-0.767,0.766v4.231c0,0.423,0.343,0.765,0.767,0.765h5.537
			c0.423,0,0.767-0.342,0.767-0.765v-4.231C518.901,104.37,518.558,104.028,518.135,104.028z"/>
		<path fill="#C1C0BF" d="M518.679,107.531h-6.627c-0.4,0-0.727,0.324-0.727,0.726v2.977h8.078v-2.977
			C519.403,107.854,519.079,107.531,518.679,107.531z"/>
	</g>
	<g>
		<rect x="511.325" y="111.104" fill="#E7C741" width="8.078" height="98.914"/>
		<path fill="#DDBD3A" d="M516.937,122.55L516.937,122.55c0.867,0,1.572,0.704,1.572,1.571v76.193c0,0.869-0.705,1.57-1.572,1.57
			l0,0c-0.867,0-1.57-0.701-1.57-1.57v-76.193C515.366,123.254,516.069,122.55,516.937,122.55z"/>
		<path fill="#DDBD3A" d="M516.937,116.991L516.937,116.991c-0.731,0-1.322,0.592-1.322,1.323v1.147c0,0.73,0.591,1.323,1.322,1.323
			l0,0c0.73,0,1.324-0.593,1.324-1.323v-1.147C518.261,117.583,517.667,116.991,516.937,116.991z"/>
	</g>
</g>
<g>
	<path fill="#6EB2C2" d="M406.319,147.21h-0.069l-4.314,2.053l-0.869-3.966l5.983-2.783h4.384v22.613h-5.114V147.21z"/>
	<path fill="#6EB2C2" d="M419.818,159.943c0.939,0.487,3.097,1.392,5.254,1.392c2.748,0,4.14-1.322,4.14-3.027
		c0-2.227-2.227-3.235-4.558-3.235h-2.157v-3.792h2.053c1.774-0.034,4.036-0.695,4.036-2.609c0-1.357-1.113-2.366-3.34-2.366
		c-1.844,0-3.793,0.8-4.732,1.356l-1.078-3.827c1.357-0.87,4.07-1.705,6.993-1.705c4.836,0,7.515,2.54,7.515,5.636
		c0,2.4-1.357,4.279-4.141,5.254v0.069c2.714,0.487,4.906,2.539,4.906,5.497c0,4-3.514,6.923-9.254,6.923
		c-2.923,0-5.393-0.766-6.715-1.601L419.818,159.943z"/>
	<path fill="#6EB2C2" d="M450.086,148.845c0,4.732-2.991,7.202-6.262,7.202c-3.444,0-6.158-2.574-6.158-6.819
		c0-4.036,2.471-7.097,6.332-7.097C447.895,142.131,450.086,144.983,450.086,148.845z M441.598,149.089
		c0,2.365,0.801,4.07,2.331,4.07c1.496,0,2.227-1.531,2.227-4.07c0-2.296-0.626-4.07-2.262-4.07
		C442.328,145.019,441.598,146.827,441.598,149.089z M444.103,165.51l12.977-23.379h2.853L446.92,165.51H444.103z M466.368,158.238
		c0,4.731-2.992,7.202-6.263,7.202c-3.409,0-6.123-2.575-6.157-6.819c0-4.035,2.47-7.097,6.331-7.097
		C464.176,151.524,466.368,154.377,466.368,158.238z M457.914,158.482c-0.035,2.365,0.766,4.07,2.297,4.07
		c1.495,0,2.227-1.531,2.227-4.07c0-2.297-0.592-4.071-2.227-4.071C458.609,154.411,457.914,156.221,457.914,158.482z"/>
</g>
<g>
	<g>
		<path fill="#78B4B5" d="M404.155,98.966h-2.839v-2.008h8.125v2.008h-2.887v8.564h-2.399V98.966z"/>
		<path fill="#78B4B5" d="M411.199,104.457c0.079,0.988,1.052,1.458,2.165,1.458c0.815,0,1.475-0.11,2.118-0.313l0.313,1.616
			c-0.784,0.313-1.741,0.47-2.776,0.47c-2.604,0-4.094-1.506-4.094-3.906c0-1.945,1.207-4.094,3.874-4.094
			c2.479,0,3.419,1.929,3.419,3.827c0,0.408-0.047,0.769-0.078,0.941H411.199z M414.008,102.825c0-0.58-0.251-1.553-1.35-1.553
			c-1.004,0-1.411,0.91-1.475,1.553H414.008z"/>
		<path fill="#78B4B5" d="M417.648,102.307c0-0.957-0.031-1.772-0.063-2.447h2.008l0.109,1.035h0.047
			c0.33-0.486,1.004-1.208,2.322-1.208c0.988,0,1.772,0.502,2.102,1.302h0.031c0.283-0.392,0.628-0.706,0.988-0.926
			c0.424-0.251,0.895-0.376,1.459-0.376c1.475,0,2.588,1.035,2.588,3.325v4.518h-2.321v-4.172c0-1.114-0.36-1.757-1.129-1.757
			c-0.55,0-0.941,0.376-1.099,0.831c-0.063,0.173-0.094,0.424-0.094,0.612v4.486h-2.321v-4.298c0-0.973-0.345-1.631-1.099-1.631
			c-0.611,0-0.973,0.47-1.113,0.863c-0.078,0.188-0.094,0.408-0.094,0.596v4.471h-2.322V102.307z"/>
		<path fill="#78B4B5" d="M431.143,102.433c0-1.004-0.032-1.867-0.063-2.572h2.071l0.109,1.066h0.031
			c0.564-0.815,1.443-1.239,2.557-1.239c1.679,0,3.185,1.458,3.185,3.906c0,2.792-1.772,4.109-3.482,4.109
			c-0.926,0-1.647-0.376-1.992-0.878h-0.031v3.812h-2.384V102.433z M433.526,104.237c0,0.188,0.016,0.361,0.047,0.502
			c0.157,0.643,0.706,1.129,1.396,1.129c1.035,0,1.647-0.863,1.647-2.165c0-1.224-0.549-2.149-1.616-2.149
			c-0.674,0-1.27,0.502-1.427,1.208c-0.031,0.125-0.047,0.282-0.047,0.423V104.237z"/>
		<path fill="#78B4B5" d="M448.148,103.609c0,2.808-1.992,4.094-4.047,4.094c-2.244,0-3.969-1.474-3.969-3.953
			s1.631-4.063,4.094-4.063C446.579,99.688,448.148,101.303,448.148,103.609z M442.596,103.688c0,1.318,0.549,2.306,1.568,2.306
			c0.926,0,1.521-0.926,1.521-2.306c0-1.145-0.439-2.306-1.521-2.306C443.019,101.382,442.596,102.558,442.596,103.688z"/>
		<path fill="#78B4B5" d="M449.625,102.386c0-1.129-0.031-1.867-0.063-2.525h2.055l0.078,1.412h0.063
			c0.393-1.114,1.334-1.584,2.07-1.584c0.221,0,0.33,0,0.502,0.031v2.243c-0.172-0.032-0.376-0.063-0.643-0.063
			c-0.879,0-1.475,0.471-1.631,1.208c-0.031,0.157-0.047,0.345-0.047,0.533v3.89h-2.385V102.386z"/>
		<path fill="#78B4B5" d="M459.775,107.531l-0.142-0.769h-0.047c-0.502,0.612-1.286,0.941-2.196,0.941
			c-1.553,0-2.479-1.129-2.479-2.353c0-1.992,1.789-2.949,4.502-2.934v-0.11c0-0.408-0.219-0.988-1.396-0.988
			c-0.783,0-1.615,0.267-2.117,0.581l-0.439-1.537c0.533-0.298,1.585-0.674,2.98-0.674c2.557,0,3.373,1.506,3.373,3.31v2.667
			c0,0.737,0.031,1.443,0.109,1.867H459.775z M459.492,103.907c-1.254-0.016-2.227,0.282-2.227,1.208c0,0.612,0.408,0.91,0.941,0.91
			c0.596,0,1.082-0.392,1.238-0.878c0.031-0.125,0.047-0.267,0.047-0.408V103.907z"/>
		<path fill="#78B4B5" d="M463.699,96.394h2.384v11.137h-2.384V96.394z"/>
	</g>
</g>
<g>
	<path fill="#78B4B5" d="M414.304,92.608c-0.419,0.209-1.36,0.434-2.587,0.434c-3.484,0-5.279-2.168-5.279-5.039
		c0-3.439,2.453-5.354,5.504-5.354c1.181,0,2.078,0.239,2.482,0.449l-0.465,1.809c-0.463-0.194-1.105-0.374-1.914-0.374
		c-1.809,0-3.215,1.091-3.215,3.334c0,2.019,1.197,3.29,3.23,3.29c0.688,0,1.451-0.15,1.898-0.329L414.304,92.608z"/>
	<path fill="#78B4B5" d="M422.664,89.154c0,2.677-1.898,3.903-3.857,3.903c-2.139,0-3.783-1.406-3.783-3.769
		c0-2.362,1.555-3.873,3.902-3.873C421.168,85.416,422.664,86.956,422.664,89.154z M417.371,89.229c0,1.256,0.523,2.198,1.494,2.198
		c0.883,0,1.451-0.882,1.451-2.198c0-1.092-0.419-2.198-1.451-2.198C417.774,87.031,417.371,88.152,417.371,89.229z"/>
	<path fill="#78B4B5" d="M424.071,87.913c0-0.912-0.03-1.69-0.06-2.333h1.974l0.104,1.002h0.045
		c0.299-0.463,1.047-1.166,2.258-1.166c1.496,0,2.617,0.987,2.617,3.14v4.336h-2.273V88.84c0-0.942-0.328-1.585-1.15-1.585
		c-0.629,0-1.002,0.434-1.152,0.853c-0.06,0.135-0.09,0.359-0.09,0.568v4.217h-2.272V87.913z"/>
	<path fill="#78B4B5" d="M435.288,83.487v2.093h1.63v1.675h-1.63v2.647c0,0.882,0.21,1.286,0.897,1.286
		c0.284,0,0.508-0.03,0.673-0.06l0.015,1.72c-0.299,0.12-0.837,0.194-1.48,0.194c-0.732,0-1.346-0.254-1.705-0.628
		c-0.418-0.434-0.627-1.137-0.627-2.168v-2.991h-0.973V85.58h0.973v-1.585L435.288,83.487z"/>
	<path fill="#78B4B5" d="M438.235,87.988c0-1.077-0.03-1.779-0.06-2.408h1.959l0.074,1.346h0.061c0.373-1.062,1.271-1.51,1.974-1.51
		c0.209,0,0.313,0,0.479,0.03v2.138c-0.165-0.03-0.358-0.06-0.613-0.06c-0.837,0-1.405,0.448-1.556,1.151
		c-0.029,0.149-0.045,0.329-0.045,0.508v3.708h-2.272V87.988z"/>
	<path fill="#78B4B5" d="M447.912,92.893l-0.135-0.733h-0.045c-0.479,0.583-1.227,0.897-2.094,0.897
		c-1.48,0-2.362-1.077-2.362-2.243c0-1.899,1.704-2.811,4.292-2.796v-0.104c0-0.389-0.209-0.942-1.331-0.942
		c-0.747,0-1.54,0.254-2.019,0.554l-0.419-1.466c0.509-0.284,1.511-0.643,2.841-0.643c2.438,0,3.215,1.436,3.215,3.155v2.542
		c0,0.703,0.03,1.375,0.105,1.779H447.912z M447.643,89.438c-1.195-0.015-2.123,0.269-2.123,1.151c0,0.583,0.389,0.867,0.896,0.867
		c0.568,0,1.033-0.374,1.182-0.837c0.03-0.12,0.045-0.254,0.045-0.389V89.438z"/>
	<path fill="#78B4B5" d="M454.074,83.487v2.093h1.631v1.675h-1.631v2.647c0,0.882,0.21,1.286,0.898,1.286
		c0.283,0,0.508-0.03,0.672-0.06l0.016,1.72c-0.299,0.12-0.838,0.194-1.48,0.194c-0.732,0-1.346-0.254-1.705-0.628
		c-0.418-0.434-0.628-1.137-0.628-2.168v-2.991h-0.972V85.58h0.972v-1.585L454.074,83.487z"/>
	<path fill="#78B4B5" d="M464.17,89.154c0,2.677-1.898,3.903-3.857,3.903c-2.139,0-3.783-1.406-3.783-3.769
		c0-2.362,1.555-3.873,3.902-3.873C462.674,85.416,464.17,86.956,464.17,89.154z M458.877,89.229c0,1.256,0.523,2.198,1.494,2.198
		c0.883,0,1.451-0.882,1.451-2.198c0-1.092-0.419-2.198-1.451-2.198C459.28,87.031,458.877,88.152,458.877,89.229z"/>
</g>
</svg>
